<?xml version="1.0" encoding="utf-8"?>
<!-- Generator: Adobe Illustrator 19.0.1, SVG Export Plug-In . SVG Version: 6.00 Build 0)  -->
<svg version="1.1" id="Layer_1" xmlns="http://www.w3.org/2000/svg" xmlns:xlink="http://www.w3.org/1999/xlink" x="0px" y="0px"
	 viewBox="0 0 700 606.383" style="enable-background:new 0 0 700 606.383;" xml:space="preserve">
<style type="text/css">
	.st0{fill:#FCFCEC;}
</style>
<g>
	<path class="st0" d="M169.8033,101.9362c0.3835,2.5126,7.1819,23.4489,9.631,29.6742c1.4392,3.6412,4.4241,10.6315,6.6623,15.5931
		c3.8327,8.4824,3.9791,9.0558,2.6051,10.2203c-1.9036,1.6129-1.6015,2.337,5.3398,12.7313
		c3.2028,4.793,5.8471,9.0968,5.8697,9.5644c0.0293,0.4663-0.7015,1.0461-1.6112,1.2866
		c-3.8817,1.0068-1.4033,5.6924,8.4292,15.9015l5.9246,6.1554l-1.3967,1.4861c-1.9425,2.0592-1.1109,3.1945,7.0066,9.5837
		c8.6857,6.8489,8.7961,6.9837,4.2292,5.4034c-4.2292-1.4665-7.8641-1.0767-8.9913,0.9583
		c-0.9842,1.7848-2.3742,1.6421-13.8179-1.4323c-16.6472-4.4664-21.5453-4.9829-24.1244-2.5419
		c-1.218,1.1515-2.9949,1.1026-11.6579-0.3443c-11.4371-1.9069-22.3705-2.035-25.086-0.299
		c-1.1821,0.765-1.9488,1.9328-2.2964,3.5051l-0.5262,2.3646l-9.0788,0.2681c-9.0981,0.2694-20.6163,2.4181-38.4363,7.1786
		c-16.91,4.5183-35.5256,12.4698-43.1103,18.427c-2.3809,1.863-5.0834,3.6817-5.9605,4.013
		c-2.2867,0.8512-3.3262,2.7644-2.2379,4.1188c0.5551,0.6985,7.422,2.2315,17.3939,3.8883
		c9.0951,1.5104,21.1462,3.719,26.9281,4.9307c5.7786,1.2114,13.7301,2.7774,17.7545,3.5015
		c10.1542,1.8287,46.8266,10.6315,70.7235,16.9818c24.6932,6.5645,45.1213,12.7848,60.755,18.5115l11.9274,4.3656l1.5493,4.7391
		c3.6934,11.3007,4.1903,13.8732,3.0338,15.7278c-0.9483,1.5334-0.6529,3.6641,1.7995,12.9767
		c2.9397,11.138,2.9397,11.138,0.9746,12.09c-2.7381,1.3285-2.5725,2.7933,1.7509,15.5492
		c4.1088,12.1256,4.4012,13.7268,2.6506,14.6658c-0.7052,0.3799-1.4326,1.559-1.6145,2.5921
		c-0.5195,3.0208,2.943,12.9864,8.1465,23.4196c5.6519,11.3426,6.7013,14.0614,5.561,14.3604
		c-2.7221,0.7241,1.1595,9.4716,7.302,16.4586c2.9526,3.3488,3.3069,4.0636,2.7025,5.5088
		c-0.9646,2.3064,0.3443,4.0313,8.4096,11.1024l7.0359,6.1588l-1.0753,2.0918l-1.075,2.1015l4.1025,3.6252
		c3.6119,3.1898,12.5251,9.5042,16.6502,11.8006c1.0524,0.5881,1.2832,1.085,0.7603,1.6371
		c-0.3965,0.4258-0.6692,1.4585-0.5784,2.2186c0.1397,1.1499,1.7995,2.1763,9.0139,5.5836
		c4.8625,2.2967,11.8951,5.2427,15.6011,6.5356c6.0383,2.1015,6.7727,2.5239,6.8799,3.9758
		c0.0715,0.9031,0.5555,2.0203,1.0847,2.5239c1.556,1.4682,13.175,4.2096,25.4143,6.0027
		c10.4851,1.5397,11.4174,1.8028,10.9627,3.1669c-0.286,0.8348-0.2924,1.9132-0.0293,2.472
		c0.7567,1.572,8.6175,3.5178,19.1125,4.7262c5.3335,0.6107,11.7098,1.3577,14.2078,1.6727l4.5343,0.5618l-0.1656,2.1504
		c-0.2175,2.8196,1.7605,3.8135,8.7312,4.3982c18.7716,1.569,34.558,2.6896,36.0944,2.5532
		c1.6534-0.1464,2.4654,0.5781,14.7373,13.0935l12.9864,13.2399l4.4661,9.0851c6.1847,12.5903,8.2961,16.0591,10.0144,16.5012
		c1.7083,0.4351,2.8811-0.0975,4.3104-1.9622c0.627-0.8119,1.3348-1.7279,1.6208-2.0822c0.8608-1.0621-0.7278-5.4147-5.1356-14.1329
		c-10.3032-20.3502-21.516-48.7621-26.8466-68.0014c-4.5539-16.4489-8.8416-42.3862-8.6857-52.5433
		c0.1104-6.9803,2.8229-15.6856,7.5847-24.3323c7.7437-14.0617,17.3424-26.4245,26.9311-34.678
		c3.2287-2.7807,9.3256-8.4552,13.6423-12.7007c7.1333-7.0192,22.3965-19.8856,24.9919-21.071
		c0.6041-0.2731,1.3804-0.903,1.7702-1.4359c1.6112-2.1793,18.8884-15.3836,34.0218-25.9891
		c19.3434-13.5515,20.1423-14.0677,36.9941-23.7865c19.668-11.3396,23.3289-13.938,30.9428-21.9774
		c7.1071-7.4969,10.6182-13.045,14.9808-23.6764c4.9567-12.0687,5.5544-16.5481,3.7256-27.8145
		c-1.0135-6.2642-2.3519-8.9441-4.2359-8.4568c-0.4547,0.1201-2.8745,2.9527-5.3724,6.3131
		c-4.2162,5.6552-4.947,6.3583-10.0956,9.6892c-6.4378,4.1577-17.9886,8.837-22.9875,9.316c-2.03,0.1916-3.8687-0.138-4.6027-0.8282
		c-2.2638-2.1341-10.3684,0.151-25.9532,7.3216l-10.7971,4.9663l-0.6237-1.9422c-0.3279-1.0331-1.0883-2.4005-1.6078-2.9204
		c-1.5171-1.5071-8.1075-0.7797-13.5678,1.4974c-4.1967,1.7606-5.0479,1.8647-5.6748,0.7211
		c-0.3995-0.7274-1.559-2.1667-2.5399-3.1505c-1.6112-1.6016-2.1148-1.6894-4.5443-0.77
		c-6.6234,2.498-18.4274,12.5088-33.8143,28.685c-8.653,9.0888-19.2519,18.606-19.4046,17.4172
		c-0.0359-0.2568-0.9323-0.7148-1.9621-1.0072c-1.8773-0.5325-1.9718-0.4547-7.9645,6.4315
		c-5.0804,5.8371-6.5712,8.046-9.2022,13.6327c-3.5959,7.6399-3.56,7.5784-4.5183,6.6687c-1.6468-1.5527-3.1605,0.6336-5.428,7.8152
		c-2.4457,7.7503-2.9883,10.9238-5.5933,32.7292c-1.5363,12.7881-1.8028,13.8861-3.3651,14.0258
		c-0.9713,0.0875-2.0626,0.5392-2.5498,1.0558c-1.228,1.3088-0.9679,13.4733,0.5295,24.4394
		c2.9527,21.6561,3.8135,34.1908,3.4366,49.9901c-0.1593,6.828,0.8705,17.4591,2.777,28.5193l0.4647,2.6995l-1.858-3.8787
		c-5.6748-11.8332-13.2495-25.089-23.8291-41.7329c-13.9347-21.9159-17.1375-26.3919-26.6969-37.3124l-7.143-8.1694l-0.0067-7.3213
		c-0.013-10.1249,1.4392-32.7326,3.3199-51.8159c2.7025-27.3402,0.4221-70.7917-3.9272-74.8876
		c-1.1662-1.098-1.7183-3.388-2.2768-9.4929c-1.7476-19.0021-4.8466-34.4476-9.3549-46.6706
		c-2.7351-7.414-4.7847-10.3048-7.2827-10.2576c-1.1206,0.0259-1.7898-0.3509-1.8969-1.067
		c-0.0845-0.6077-0.7537-5.2657-1.4748-10.3507c-2.0529-14.4789-3.5211-21.7921-7.0226-34.9914
		c-4.9763-18.7666-6.8895-23.8986-9.6246-25.854c-1.9099-1.3627-2.9264-3.2726-6.3144-11.9147
		c-8.5137-21.711-11.3622-27.2896-21.5909-42.1975c-7.8964-11.5149-10.2805-13.8991-12.2653-12.2992
		c-0.6885,0.5505-1.3837,0.8981-1.5234,0.7663c-0.1493-0.141-3.8816-5.889-8.2602-12.7296
		c-9.29-14.5051-14.6269-21.4658-16.553-21.5862c-2.1763-0.138-2.5725,1.0348-1.9488,5.6844
		c0.3246,2.3909,0.9031,7.6642,1.2669,11.632c1.7473,18.6725,6.1258,39.1441,16.9781,79.3263
		c1.6957,6.2855,1.8094,7.6675,0.7115,8.8776c-0.7341,0.8103-1.1758,2.2006-1.0168,3.2041
		c0.1593,0.9746,3.8494,11.6094,8.2116,23.6781c5.8664,16.2201,7.7633,22.3526,7.2957,23.6195
		c-1.0235,2.7624,9.8548,36.0501,15.2339,46.6167c4.9211,9.6749,5.285,10.7206,3.9954,11.5116
		c-1.5071,0.9273-1.1273,2.3599,3.8005,14.2596c3.5178,8.5041,3.7646,9.4656,2.1308,8.374
		c-1.5853-1.0587-2.0659-0.9939-3.4626,0.4939c-0.9031,0.955-1.6534,1.702-1.6827,1.6761
		c-0.3898-0.3672-8.1139-15.6483-15.0197-29.7001c-5.9798-12.1648-9.4231-18.4257-10.4884-19.0866
		c-2.0496-1.2457-9.5238-15.3187-14.7859-27.8228c-3.9305-9.3386-5.5284-11.3622-7.4124-9.3645
		c-0.5036,0.5295-1.0428,0.929-1.1435,0.8349c-0.0975-0.0991-1.871-3.5976-3.9369-7.7892
		c-3.3002-6.7076-6.4411-14.7972-7.916-20.4247c-0.5033-1.9149-2.4394-3.0601-3.417-2.0236
		c-0.3509,0.3848-0.3832,6.5855-0.0682,13.6975c1.1206,25.1642,10.391,54.2909,26.2422,82.4726
		c3.089,5.4879,8.1758,14.6202,11.2811,20.2654c4.1837,7.578,14.6561,23.6438,16.7739,25.7064
		c0.0586,0.0585-0.445,0.8349-1.1143,1.7183c-0.9713,1.2866-0.8997,2.2315,0.3446,4.7361l1.5656,3.1313l-6.0939-6.2984
		c-5.9346-6.1325-6.2299-6.5842-11.2777-17.0789c-5.8597-12.1875-8.832-17.2027-11.6968-19.7103
		c-1.2473-1.0783-3.6704-5.2623-6.4964-11.1966c-4.9796-10.4658-7.8348-14.4645-10.5436-14.7729
		c-1.5204-0.169-2.1667-0.8901-5.5937-6.2968c-2.7803-4.3882-4.7455-6.7791-6.9836-8.4924
		c-2.4457-1.8663-3.8849-3.7486-6.6587-8.6793c-1.9525-3.4626-5.103-8.4877-7.0162-11.174
		c-3.1898-4.4857-3.7127-4.9713-6.3992-6.0806c-1.5916-0.6529-2.9916-1.4276-3.0694-1.6907
		c-0.0812-0.2698-3.6282-4.7634-7.9126-10.0095c-6.2303-7.6462-8.2376-9.751-10.1701-10.6428
		c-1.9165-0.8851-3.1965-2.1956-6.2529-6.3989c-5.246-7.2015-12.9086-13.9041-15.5266-13.5761
		c-1.8547,0.2325-2.1893-0.0699-23.7542-21.2333c-15.1561-14.877-22.4973-21.7243-23.9036-22.296
		C171.4241,98.7334,169.4979,99.9435,169.8033,101.9362L169.8033,101.9362z M186.2655,126.7022
		c5.4762,8.4501,9.9296,15.5768,9.9426,15.8868c0.0096,0.307-0.7537-0.1557-1.6564-1.0068
		c-0.9031-0.8508-1.9069-1.3301-2.1733-1.0457c-0.6559,0.6982,1.5204,2.7544,3.9791,3.7579
		c1.3807,0.5588,2.6021,1.9165,4.5672,5.0478l2.6829,4.2828l-3.0208-2.3323c-2.7837-2.1484-4.5475-2.8598-4.4953-1.8221
		c0.016,0.2209,2.3127,2.2282,5.1742,4.507c3.4951,2.7787,5.6488,4.9533,6.6783,6.7431l1.5267,2.6393l-3.9661-2.9786
		c-2.1663-1.6325-4.1577-2.7627-4.4079-2.5013c-0.5555,0.5897,0.299,1.3887,6.1361,5.7233c3.5437,2.6247,5.2879,4.364,6.99,6.9397
		l2.2704,3.4499l-4.489-3.4789c-2.4946-1.9328-4.8266-3.3977-5.249-3.2923c-0.8801,0.2192,1.858,2.792,7.9093,7.432
		c3.4336,2.6377,5.1875,4.4923,7.5002,7.9466l3.0275,4.504l-4.5086-2.8748c-4.5735-2.9234-6.6783-3.7922-6.6394-2.7431
		c0.0196,0.604,10.3521,6.9916,11.778,7.284c0.76,0.1577,7.1007,8.4811,7.1267,9.3565c0.0096,0.2308-2.8456-1.3448-6.4085-3.5244
		c-6.3537-3.893-7.5554-4.4368-7.5262-3.3927c0.026,0.6985,12.0897,8.0231,14.1622,8.5915c1.5883,0.4371,8.192,8.5998,7.9419,9.8292
		c-0.1234,0.6253-8.1435-3.7662-9.8974-5.4197c-0.4776-0.4497-1.0654-0.5635-1.3514-0.2648
		c-0.6592,0.7018,0.5651,1.7476,5.5677,4.7328c5.132,3.0614,5.1839,3.1116,4.3234,3.6851
		c-0.4128,0.2777,0.0356,2.2202,1.0165,4.3706c0.9842,2.15,1.3548,3.7872,0.8349,3.6897c-0.5132-0.0991-1.4585-1.3754-2.0952-2.8293
		c-0.64-1.4469-1.3804-2.8535-1.6435-3.097c-0.916-0.8641-1.3255,0.4467-0.6466,2.0705c0.601,1.4422-0.2305,1.1452-5.5966-1.9877
		c-3.4885-2.0416-6.503-3.4725-6.7498-3.2094c-0.5585,0.5897-0.3476,0.7846,2.8974,2.6669
		c1.8839,1.0896,2.5335,1.7832,2.3909,2.5172c-0.1138,0.5555,0.3443,2.027,0.9972,3.2467c1.1109,2.0659,0.8056,1.9149-3.8979-1.9195
		c-2.8389-2.3097-7.0615-5.7317-9.4979-7.6935c-4.3297-3.4885-4.3686-3.5487-2.9134-4.4551
		c2.0722-1.2896,1.3315-3.6575-2.1733-6.9594c-2.9167-2.7511-10.0012-10.9465-11.8851-13.7674
		c-1.0038-1.4928-1.0038-1.4928,1.0038-1.6485c1.9651-0.1593,2.004-0.2129,1.7116-2.2495c-0.156-1.1419-2.761-5.8404-5.7623-10.4203
		c-7.0455-10.7209-6.9707-10.5892-6.0613-11.0489c1.9036-0.9613,1.3578-3.5374-2.8615-13.4231
		c-4.499-10.5406-13.4055-34.7852-12.7885-34.8178C176.2055,111.3918,180.7953,118.2567,186.2655,126.7022L186.2655,126.7022z
		 M194.6651,124.495c8.228,8.3903,16.7773,17.1993,18.9699,19.5543c4.2355,4.5475,5.5803,5.2427,7.3668,3.8118
		c0.9453-0.755,1.6468-0.3945,5.1712,2.6669c2.2964,1.996,5.8597,5.9685,8.1402,9.0755c3.4236,4.6693,4.3686,5.6242,6.048,6.0839
		c2.0725,0.5718,3.1572,1.7556,15.2276,16.6049c3.6738,4.5166,4.3396,5.0834,6.5842,5.5724
		c1.9684,0.4317,2.9982,1.1775,4.9018,3.5224c3.8946,4.7993,10.8034,17.4235,12.5966,23.0138
		c0.9224,2.8552,2.1697,5.4406,2.8063,5.7932c0.8056,0.4434,0.6888-0.5668-0.3606-3.2806c-1.6924-4.3723-1.2244-4.9876,1.699-2.2315
		c3.1376,2.959,7.4091,10.6541,10.9205,19.6956c1.8058,4.635,5.0671,12.2796,7.2467,16.9898
		c4.5931,9.9103,4.8981,11.1284,2.1667,8.5493c-1.3711-1.2929-3.9176-6.6979-8.4259-17.8652
		c-3.5504-8.7961-6.8051-15.9374-7.2242-15.8319c-0.6659,0.164,1.6761,6.5063,8.3121,22.5442
		c2.4168,5.8421,2.8485,7.4955,1.7409,6.667c-1.3348-1.0002-5.3105-9.4683-10.7612-22.9436
		c-1.1172-2.7544-2.4427-5.2248-2.9171-5.4147c-0.7956-0.3313,4.1837,13.0057,7.9193,21.1751
		c1.0428,2.2947,1.5171,3.9808,1.0557,3.7662c-0.4613-0.2112-2.1211-3.3814-3.7256-7.1087
		c-8.9554-20.8112-10.9468-24.7481-10.8493-21.4642c0.0163,0.5116,2.0725,5.5657,4.5964,11.294
		c2.5239,5.7267,4.8755,11.2744,5.2717,12.3854l0.7018,2.022l-2.3453-1.6125c-1.9066-1.3075-3.0564-3.1379-6.1747-9.8259
		c-2.1181-4.5475-5.4506-12.6212-7.4516-18.0572c-2.0007-5.4243-3.8134-9.4214-4.0406-8.9211
		c-0.5588,1.1775,2.9071,11.3493,7.1233,20.9203c1.858,4.203,3.8264,8.7748,4.4142,10.209l1.0591,2.6051l-2.5369-2.7414
		c-1.8287-1.9831-3.4755-5.1955-5.9409-11.6207c-1.8873-4.9111-3.6771-8.9291-4.0084-8.9893
		c-0.3283-0.0648-1.8287-3.2776-3.3199-7.1137c-2.8422-7.302-3.3651-8.2439-4.1055-7.453c-0.2501,0.2648,1.1725,4.338,3.1831,9.116
		c2.014,4.7814,4.9437,11.9357,6.5679,16.0155c2.7381,6.8829,2.8033,7.3166,1.0687,6.524
		c-1.5886-0.7291-2.7252-3.1752-7.8218-16.8049c-3.2806-8.7588-6.2852-15.9341-6.6687-15.9064
		c-0.4188,0.0293-0.6918,0.2322-0.6819,0.5116c0.0096,0.2551,2.4587,7.0179,5.4795,15.0882
		c4.1837,11.2012,5.1256,14.4429,4.018,13.8226c-1.5686-0.8688-4.031-6.2529-8.8446-19.3367
		c-3.2906-8.9551-3.3262-9.0249-4.1188-8.1787c-0.2761,0.289,1.1984,5.0574,3.2806,10.6102
		c3.5667,9.5125,3.6478,9.9233,1.4422,7.2451c-2.644-3.2091-6.3114-11.601-11.2195-25.6462
		c-1.8447-5.2753-3.6022-9.8488-3.8946-10.1266c-1.6498-1.554,0.1819,5.0202,5.6455,20.2887
		c2.183,6.0902,2.1796,6.1375,0.1171,3.6006c-1.1598-1.4309-2.4364-3.5487-2.8715-4.7701c-0.4451-1.231-1.2636-2.3925-1.8743-2.6393
		c-2.0982-0.8671-7.0192-8.3008-8.1042-12.2523c-1.2214-4.4484-2.5435-6.2007-2.1341-2.8422
		c0.7015,5.8032-5.2231-4.7797-8.9295-15.9534c-1.7476-5.2753-3.3717-9.7237-3.6348-9.9739
		c-1.4063-1.3218-1.0361,0.9955,1.2084,7.6529c1.3774,4.0749,2.3519,7.3701,2.1796,7.3735c-0.169,0.005-2.2089-2.7138-4.515-6.0124
		c-3.5926-5.1453-4.9893-8.2133-9.6635-21.2353c-3.3132-9.2478-5.7233-14.9352-6.1325-14.5001
		c-0.3672,0.3932,1.0035,5.2085,3.0564,10.695c2.0496,5.4845,3.6738,10.1994,3.6089,10.4771
		c-0.0585,0.2661-3.258-4.3609-7.143-10.3491c-3.859-5.9426-11.3559-17.3583-16.6212-25.2839
		c-5.262-7.9306-9.4134-14.4709-9.1989-14.4935C179.5091,109.2398,186.4342,116.1017,194.6651,124.495L194.6651,124.495z
		 M58.4608,244.0148c7.0066-3.1183,7.7859-3.2563,10.245-1.8337c1.4259,0.8286,1.5623,1.1109,0.7081,1.535
		c-1.4096,0.7048-0.9712,0.9826,3.6575,2.345c5.8697,1.725,3.0857,1.8304-3.3295,0.1301c-3.0468-0.8119-5.5933-1.1678-5.6681-0.7956
		c-0.0745,0.3635,1.0135,1.0035,2.3583,1.3754c2.316,0.6483,2.1081,0.7324-2.774,1.1435
		c-2.9234,0.2388-7.7892,0.9889-10.8946,1.6631l-5.6192,1.2244l2.5499-2.0107C51.0873,247.6953,55.0601,245.5269,58.4608,244.0148
		L58.4608,244.0148z M71.3368,251.4126c5.4992,0.0163,11.2292,0.3965,12.7299,0.8512c2.475,0.7437,2.8974,0.6237,4.4045-1.267
		c1.0524-1.3185,1.6468-3.1083,1.6112-4.8462l-0.0552-2.7611l4.671,0.0423c5.1449,0.0406,11.5894,0.9972,20.7623,3.0777
		c3.3002,0.7537,6.4445,1.1711,6.9417,0.921c2.0266-0.9859,2.7381-3.6365,1.4682-5.4849c-2.5921-3.7825-0.4095-3.711,16.2248,0.5475
		c7.0325,1.8011,13.6427,3.3894,14.721,3.5341c2.5109,0.3492,3.6445-0.8023,3.6508-3.703l0.0067-2.3014l1.7053,0.952
		c2.7381,1.5297,3.0824,0.1364,0.3928-1.5803l-2.3157-1.4845l2.0592-0.161c1.1402-0.0908,2.6147,0.3572,3.3036,1.0102
		c0.6948,0.6483,1.5427,0.8675,1.8969,0.489c0.3606-0.3815,4.2226,0.4141,8.5656,1.7622
		c10.8653,3.3634,14.3149,3.7499,16.1662,1.7898c0.796-0.8528,1.3481-1.9149,1.228-2.3712
		c-0.4743-1.7672,0.7274-1.6192,3.586,0.4451c1.6727,1.2084,3.2028,1.9262,3.4852,1.6322c0.5784-0.622-0.6429-1.7702-3.8198-3.6152
		c-3.9628-2.298-1.5753-1.9425,4.3137,0.6366c9.5757,4.205,14.1655,5.8956,15.2894,5.6179
		c0.5488-0.1397,1.6305-0.9114,2.3872-1.7136c1.1662-1.2327,1.6145-1.231,2.9397,0.018c0.8512,0.8006,1.9425,1.3707,2.3875,1.244
		c0.4903-0.138-0.1397-1.1302-1.5656-2.485c-1.3318-1.252-2.316-2.6164-2.2186-3.0807c0.458-2.0952,17.7711,5.6209,36.3119,16.1632
		c6.0058,3.4103,12.1712,6.4897,13.6293,6.808c2.6703,0.5718,4.4601-0.461,4.4015-2.5399
		c-0.0748-2.5728,6.0806,1.2051,17.979,11.0339c6.8762,5.6781,9.0688,6.6494,10.826,4.7847
		c1.4715-1.559,2.5273-0.9746,13.165,7.3086c8.0494,6.2689,21.5912,19.5347,28.4092,27.8338
		c19.0021,23.1372,36.9808,48.8469,42.5385,60.8198l2.2834,4.9211l-2.475-1.6305c-1.6079-1.0624-2.4394-2.0399-2.3776-2.797
		c0.0519-0.6396-4.9048-7.5584-11.0376-15.4159c-6.1358-7.8544-13.6816-17.7092-16.8128-21.9514
		c-5.4114-7.3379-6.6846-8.6827-6.6587-7.0359c0.016,0.9972,8.5786,12.5576,22.0878,29.8188l11.4141,14.5909l-5.431-3.8134
		c-2.9689-2.0918-8.9424-5.9931-13.1876-8.6175c-6.0743-3.7649-8.0753-5.3305-9.2411-7.2112
		c-0.8186-1.3218-7.0099-8.7864-13.7305-16.5464c-12.0022-13.8665-20.4151-24.472-25.3784-32.0078
		c-2.9264-4.4471-3.6737-5.259-4.2518-4.645c-0.4969,0.5295,5.8145,10.0045,12.0511,18.0698
		c2.3583,3.0501,9.8096,11.9273,16.5268,19.6973c6.7206,7.76,12.2556,14.4546,12.2849,14.8344
		c0.0778,1.2703-19.7688-10.089-23.251-13.3047c-1.7635-1.6305-5.5707-6.0057-8.4225-9.6828
		c-3.3977-4.3786-10.6671-12.1904-20.925-22.4776c-8.6564-8.689-19.1418-19.6843-23.3481-24.4787
		c-8.9814-10.2579-9.943-11.2258-9.8911-9.9363c0.0715,1.7086,15.3836,18.5767,32.0667,35.3406
		c16.4845,16.5531,27.8371,29.6595,25.5437,29.4939c-0.2046-0.0226-9.3156-4.1092-20.1779-9.0721
		c-16.4034-7.4872-19.9571-9.3452-20.6812-10.8201c-0.4839-0.9842-2.9493-3.732-5.4962-6.1358
		c-5.5188-5.1971-11.005-11.7261-16.881-20.0675c-2.3516-3.3521-4.3686-6.2432-4.4727-6.4218
		c-0.1201-0.1949-0.4873-0.2079-0.9323-0.0259c-1.4389,0.5977,10.2353,16.2118,18.2487,24.4168
		c4.1381,4.2229,7.3894,7.9063,7.1815,8.1238s-3.7646-1.1661-7.8867-3.0694l-7.5098-3.4692l-30.7834-28.7661
		c-16.9522-15.8416-30.9487-28.6008-31.1373-28.3992c-0.8315,0.8801,6.9544,8.5752,31.4071,31.0336l26.3267,24.1893l-10.6508-4.1251
		c-5.8727-2.2738-13.5126-5.1356-17.0403-6.3829l-6.3859-2.2638l-14.4316-13.1457c-7.929-7.2271-14.6302-12.9312-14.8803-12.6711
		c-0.2468,0.2631,5.0737,5.7363,11.8432,12.1708l12.2975,11.6839l-6.5419-2.1015c-6.4475-2.0755-6.7139-2.2382-19.369-11.8918
		c-7.0585-5.3824-17.5273-13.6719-23.254-18.411c-5.7526-4.7521-10.8816-8.6108-11.45-8.5979
		c-1.7053,0.0356,22.2634,19.8856,37.6793,31.1926c2.5498,1.8647,4.6839,3.5537,4.6906,3.6901
		c0.0033,0.143-6.6198-1.5886-14.7243-3.8427l-14.7273-4.1088l-8.0231-6.4837c-9.3419-7.5421-10.6867-8.4518-11.3915-7.7047
		c-0.3183,0.3346,0.1786,1.0364,1.1855,1.6697c0.9649,0.601,4.473,3.391,7.8771,6.2692l6.1391,5.1839l-6.4478-1.6631
		c-4.8366-1.2503-7.3279-2.332-9.9493-4.3394c-9.6828-7.3835-27.7723-19.9993-28.1262-19.6194
		c-0.6077,0.6433,1.0947,2.0203,12.4991,10.1378c10.6833,7.5977,14.9319,10.7516,14.7533,10.9398
		c-0.2501,0.2664-20.1227-4.3882-22.2535-5.2165c-1.387-0.5362-4.778-2.8-7.6236-5.0997c-2.8519-2.2934-5.6-4.1092-6.1847-4.0732
		c-0.7437,0.0356,0.471,1.3026,4.044,4.2159l5.103,4.1577l-4.9633-1.1691c-4.3979-1.0361-5.7167-1.7509-11.5635-6.2951
		c-10.4691-8.1402-11.632-8.9324-12.1745-8.361c-0.3572,0.3835,0.5329,1.41,2.5109,2.9234c1.689,1.2866,5.1256,3.9824,7.6399,5.9898
		l4.5702,3.6608l-11.5249-2.1341c-6.3207-1.1758-18.911-3.388-27.9086-4.9048c-8.9976-1.5201-17.5532-2.9723-18.9762-3.2224
		C47.8423,253.2413,60.5397,251.3803,71.3368,251.4126L71.3368,251.4126z M73.1914,237.7507
		c2.3875-0.8575,3.9468-1.0085,4.2422-0.4141c0.2631,0.5342,1.3025,1.2733,2.4005,1.7103c1.3122,0.5179,1.7539,0.9579,1.3804,1.3528
		c-0.3343,0.3572,0.2275,1.085,1.4748,1.8919c1.5882,1.0265,1.0102,0.9988-2.6603-0.1038c-2.5758-0.773-4.9893-1.2507-5.3724-1.0461
		c-1.0298,0.5312-0.7148,0.6935,5.577,2.8489c5.1582,1.7655,6.8636,3.1539,4.6157,3.742c-1.1854,0.315-7.419-2.0416-10.7319-4.0569
		c-1.5949-0.9682-3.5018-2.1148-4.2878-2.5808C67.9391,239.9918,68.4946,239.438,73.1914,237.7507L73.1914,237.7507z
		 M90.4201,232.8329c14.8963-3.8052,17.9464-4.3769,19.0118-3.5421c8.2702,6.4378,9.5205,7.5291,8.1435,7.1021
		c-0.8282-0.2614-2.2512-1.1206-3.0631-1.8563c-0.8089-0.7374-1.5786-1.0248-1.6631-0.6203
		c-0.1656,0.7956-2.4361-0.2451-4.3104-1.9734c-0.6952-0.6479-1.4489-0.911-1.7313-0.6107
		c-0.6918,0.7324,0.9583,2.173,7.0974,6.1897c2.9786,1.9505,5.3661,3.9252,5.5674,4.6221c0.5748,1.9229-0.8997,1.1695-9.7903-5.0332
		c-4.5961-3.2041-8.8124-5.8108-9.3808-5.7962c-1.3448,0.0419-0.0682,1.1382,6.8602,5.9183
		c3.1542,2.1793,5.7786,4.1657,5.7852,4.3882c0.0389,0.7244-5.5544-0.9097-7.7048-2.2495
		c-7.0681-4.4095-10.9172-6.4947-11.2844-6.1132c-0.2175,0.2405,1.2084,1.8028,3.2028,3.5178
		c1.9944,1.7153,3.5341,3.1689,3.4496,3.255c-0.1883,0.2029-5.7234-2.4348-9.618-4.5818c-1.8417-1.0198-2.8878-1.226-2.8748-0.5701
		c0.0263,0.6433,0.6822,1.3042,1.7605,1.7575c0.9486,0.3961,2.5728,1.2034,3.6156,1.7978c1.692,0.9662,1.7376,1.0993,0.4254,1.2536
		c-0.8152,0.0928-3.5537-0.8591-6.1588-2.1437c-2.6017-1.2766-4.8852-2.0968-5.1323-1.8337
		c-0.6203,0.6546,0.0263,1.1452,3.4951,2.6799c3.0405,1.3414,3.9402,2.4198,2.0759,2.472
		c-1.0235,0.0306-8.8224-3.2986-9.7287-4.1531C77.8657,236.1395,79.2917,235.6735,90.4201,232.8329L90.4201,232.8329z
		 M117.8254,229.6903c1.5427,1.4502,3.7353,3.245,4.8951,4.0097l2.1048,1.3854l-2.5758,0.0732
		c-2.17,0.0635-3.3002-0.4856-7.1233-3.4559l-4.5446-3.5228l2.2285-0.5638C114.7657,227.1305,115.3827,227.3823,117.8254,229.6903
		L117.8254,229.6903z M125.4879,231.2413c4.6221,3.8214,5.3758,4.648,4.3037,4.7099c-1.3967,0.0762-6.35-3.2287-10.6248-7.0991
		c-2.1115-1.9049-2.2089-2.155-0.8349-2.1973C119.404,226.6206,121.5996,228.0289,125.4879,231.2413L125.4879,231.2413z
		 M314.9437,45.0695c9.0755,14.6269,10.0012,15.6078,12.6711,13.4753c0.6888-0.5492,1.5497-0.6466,2.001-0.2162
		c0.4417,0.4141,4.1447,5.9233,8.2699,12.2945c8.1498,12.5919,11.3785,19.3041,18.8268,39.1704
		c2.5954,6.9204,5.2523,13.1098,5.8793,13.7042c0.6366,0.5994,1.7409,0.8834,2.4976,0.6449
		c1.2184-0.3818,1.543,0.1184,3.2094,4.9437c4.7391,13.6975,8.2862,30.2572,11.151,52.1062
		c1.1046,8.4016,2.4038,15.5964,2.9008,16.0737c1.2214,1.1452,3.1802,1.093,4.333-0.1314c1.1628-1.2343,1.5171-0.8675,3.3492,3.4659
		c4.0406,9.5611,7.8282,27.6488,9.28,44.304c1.3578,15.6776,1.4226,15.9959,3.3751,17.1554
		c1.7865,1.075,1.8091,1.1695,3.9921,17.3683c0.159,1.2084-0.1267,1.9618-0.8252,2.1504c-0.7634,0.2046-0.76,0.4287,0.0226,0.7697
		c0.6822,0.299,1.098,1.8417,1.098,4.0473l0.0033,3.5633l-1.5071-4.7814c-0.8315-2.631-1.858-6.0872-2.2838-7.6852
		c-1.4356-5.3954-3.0661-9.3842-3.7516-9.1829c-0.4028,0.1138-0.0975,4.5961,0.6659,9.8518c0.76,5.2524,1.2896,9.7414,1.1695,9.8714
		c-0.1204,0.1331-0.747-1.543-1.3677-3.6541c-1.403-4.7881-3.586-10.7875-4.1088-11.2811c-1.062-0.9972-1.085,2.4294-0.1041,14.7988
		c0.6985,8.8253,1.5237,14.3634,2.2252,14.9189c0.6237,0.5132,0.8152,1.2117,0.4351,1.6208
		c-0.3799,0.3932-0.5066,2.6603-0.2857,5.0901c0.312,3.557,0.1464,3.1379-0.8964-2.2445
		c-0.6985-3.6185-1.7249-8.8061-2.2478-11.4434c-0.5359-2.6669-1.3252-10.4039-1.7639-17.2775
		c-0.8086-12.6484-3.43-38.251-3.9724-38.7626c-1.0298-0.9742-1.0947,1.6924-0.2305,9.5029
		c0.5748,5.2294,0.604,9.0495,0.0616,9.3419c-0.6074,0.328-0.5555,0.643,0.1593,0.9483c0.6948,0.299,1.3285,3.6964,1.8124,9.6798
		c1.1206,14.0225,1.0394,14.1133-2.7221,3.3099c-2.764-7.9256-3.573-11.5408-3.7712-16.8032
		c-0.1331-3.6801-0.5877-6.675-0.9972-6.6474c-0.4028,0.0226-0.7534,1.392-0.76,2.9866l-0.0193,2.943l-0.9486-3.2513
		c-0.5199-1.7802-1.3092-4.6287-1.7606-6.3211c-0.445-1.6827-1.1825-10.0175-1.6371-18.4709
		c-0.8315-15.6078-1.2666-19.3288-2.2671-19.2995c-0.2827,0.013-0.3346,2.5888-0.1104,5.7576
		c0.7697,10.9904,0.9776,21.0777,0.3898,19.0507c-1.4263-4.9081-5.3239-18.0698-7.4287-25.0894
		c-1.2832-4.2761-2.5631-9.92-2.8552-12.6079c-0.2957-2.6766-1.1306-10.1295-1.8647-16.5887
		c-0.7274-6.4608-1.6664-15.5768-2.0852-20.285c-0.6918-7.7779-1.254-10.1931-2.1148-9.0871
		c-0.3865,0.5052,0.6303,11.6207,2.4394,26.6111c1.5008,12.4472,1.5819,14.6478,0.4191,10.7273
		c-2.7544-9.2315-5.3888-17.0433-9.5205-28.1977c-2.9104-7.8658-4.7425-14.1183-4.8692-16.6359
		c-0.2339-4.4937-3.3944-27.4619-4.5279-32.8606c-0.4224-1.9977-1.0491-3.5697-1.4456-3.573
		c-0.3961-0.0033-0.5359,0.783-0.3183,1.8287c0.3898,1.871,4.0247,26.366,4.4664,30.051c0.133,1.093-2.7937-6.5014-6.516-16.9136
		c-3.7223-10.4136-6.4671-19.0849-6.1228-19.3091c0.5555-0.3619-2.6862-29.7453-3.4463-31.1813
		c-1.2151-2.3014-1.0624,2.0888,0.5292,14.8657c0.9942,7.9921,1.6242,14.5796,1.397,14.583
		c-0.2275,0.0096-3.1153-7.3835-6.3959-16.3502c-3.2773-8.973-8.3155-21.8297-11.1381-28.4461
		c-7.9778-18.6612-9.6506-22.8449-9.1699-22.8804C306.0824,31.1654,310.2109,37.4313,314.9437,45.0695L314.9437,45.0695z
		 M133.7285,232.3406c5.444,4.965,6.3147,5.9688,5.0478,5.8128c-2.5302-0.302-5.8986-2.4604-11.3266-7.2338l-5.0445-4.4371
		l2.3712-0.0665C126.9528,226.3462,127.6902,226.8351,133.7285,232.3406L133.7285,232.3406z M305.5922,39.2989
		c0.9742,2.3632,2.9979,7.1915,4.5505,10.8623c4.6061,10.857,13.636,33.9942,13.2754,34.0005
		c-0.1719,0.0067-3.1668-4.5183-6.6198-10.0012c-5.4213-8.6111-7.6495-11.4274-7.5943-9.6017
		c0.0096,0.2272,3.8491,6.5582,8.5233,14.0451c6.9481,11.1367,9.1503,15.3267,12.0248,22.8708
		c3.583,9.3955,5.5414,17.2951,3.4888,14.0697c-1.6568-2.6034-12.6032-17.5549-13.4155-18.3183
		c-0.4221-0.4028-0.906-0.5345-1.1172-0.3023c-0.2112,0.2179,2.9623,5.0478,7.0811,10.7811
		c10.9694,15.2761,13.5256,19.9797,17.5925,32.3993c1.9618,6.0057,3.4462,10.982,3.2773,10.9904
		c-0.172,0-1.5397-1.7719-3.0694-3.9808c-3.8654-5.5757-16.2541-18.4726-16.5172-17.1944c-0.1204,0.5685,1.1106,2.2688,2.8,3.8783
		c10.4103,9.9167,18.7031,22.0828,23.0201,33.7637c2.8841,7.7972,10.8749,35.0546,9.5139,32.4545
		c-0.3961-0.7634-1.8158-3.4902-3.2061-6.1651c-5.8175-11.1706-20.3402-33.0848-21.9059-33.0346
		c-0.9646,0.026-0.4806,0.939,3.2091,6.0613c8.819,12.2377,18.0342,28.2106,23.9491,41.5024
		c2.6377,5.9266,10.7778,31.7514,10.2027,32.3654c-0.0845,0.0845-0.8478-1.1239-1.6987-2.6683
		c-9.9267-18.1885-22.5851-39.9321-23.228-39.9258c-0.9746,0.0116-0.2728,1.8856,2.2508,6.0174
		c5.6781,9.2917,22.8838,40.4516,24.4431,44.2751c3.1865,7.7893,6.9284,20.9184,6.99,24.5176
		c0.0682,4.1185-0.2502,3.9724-3.1572-1.4585c-1.5201-2.8519-2.3842-6.0839-2.8648-10.7874
		c-0.7341-7.1982-2.3516-8.6597-1.7832-1.6142c0.2565,3.1342,0.0842,3.9921-0.6466,3.3358
		c-0.5295-0.4776-1.1206-3.3847-1.2992-6.3859c-0.3443-6.0157-1.7053-7.5538-1.6371-1.845l0.0389,3.6478l-1.2666-1.842
		c-0.7018-1.0198-1.8969-2.8259-2.6732-4.0277c-0.7733-1.1954-1.6371-2.1697-1.9199-2.1633
		c-1.0231,0.0326-0.1494,1.9684,3.0208,6.6913c2.5465,3.7875,3.3229,5.6715,3.5763,8.6467
		c0.1949,2.3486,0.5847,3.5244,1.0168,3.0697c0.3961-0.4254,0.6885-1.2766,0.6626-1.9847
		c-0.0259-0.9712,0.1527-1.0587,0.8445-0.4091c0.4873,0.4677,1.1791,3.1083,1.5723,5.9928c0.3865,2.8911,0.8053,5.2753,0.9579,5.418
		c0.4776,0.4484,1.9295,11.2325,1.5137,11.2518c-0.7048,0.0229-1.8969-4.4694-2.5239-9.5432
		c-0.3506-2.8163-1.0068-5.2394-1.4453-5.3272c-0.4517-0.0875-0.6466,1.0072-0.445,2.4883
		c0.3606,2.6051,0.3476,2.6214-0.6366,1.1043c-0.5588-0.8608-1.4522-3.7712-2.0303-6.5712c-0.5684-2.8-1.3351-5.0086-1.7183-4.9826
		c-0.4158,0.0326-0.6822,0.2012-0.6626,0.4287c0.0226,0.2209,0.5877,3.2676,1.2666,6.805c0.6725,3.5404,1.1079,6.5386,0.9683,6.6816
		c-0.325,0.3476-0.5555-0.5751-3.4596-13.6686c-1.4323-6.4608-2.9004-12.0767-3.245-12.405
		c-1.0294-0.9713-0.6948,1.5886,1.4974,11.3915c1.0917,4.9018,1.8257,8.7831,1.6242,8.5915
		c-0.942-0.8835-2.2575-5.2654-4.1155-13.7105c-1.1239-5.0867-2.3257-8.9198-2.6862-8.5396
		c-0.3639,0.3865-0.2275,2.3712,0.3054,4.4597c1.8613,7.3183,0.5944,5.1193-3.5308-6.1458
		c-3.9013-10.6458-4.0832-11.4806-2.6732-12.4958c1.7669-1.2766,1.4193-2.4491-4.1514-14.094
		c-4.5539-9.5142-5.418-11.7959-11.3915-30.0364c-2.5369-7.734-4.2585-14.2237-3.8394-14.4366
		c0.4191-0.2095,0.8252-0.76,0.8934-1.2147c0.0745-0.455-3.6771-11.0409-8.3058-23.4718
		c-8.1824-21.9531-8.3933-22.6822-6.9351-24.0253c1.3578-1.2506,1.2962-2.2738-0.6982-10.4838
		c-1.2084-4.9972-3.7419-14.8005-5.6196-21.7469c-4.6676-17.2772-10.053-42.3971-11.3689-53.0416
		c-0.6007-4.8918-0.9872-9.0562-0.8475-9.2022C303.7342,35.1575,304.6176,36.9277,305.5922,39.2989L305.5922,39.2989z
		 M137.4675,225.341c1.4812-0.5458,1.8936-1.1791,2.5628-3.9485l0.8053-3.2999l6.4578,0.0632
		c3.5663,0.0406,10.4721,0.8056,15.4288,1.7166c13.6782,2.5043,13.0123,2.5013,14.6462,0.0619
		c1.2832-1.9069,1.7576-2.0416,5.6033-1.543c2.2997,0.302,9.748,2.152,16.5301,4.1092c6.7761,1.9488,12.8404,3.3082,13.4574,3.0062
		c0.6237-0.3087,1.871-1.3481,2.8229-2.3583c1.4745-1.564,2.0918-1.6844,4.6676-0.9081c6.4089,1.9232,14.4449,6.2366,16.7121,8.9684
		c1.1954,1.4406,4.4275,4.3982,7.2338,6.6297c2.8096,2.2315,5.0022,4.3217,4.9177,4.6823c-0.0941,0.3655,0.5588,1.374,1.4878,2.3047
		c0.9031,0.9077-3.6964-2.2512-10.222-7.0275c-6.5323-4.7751-12.0544-8.6827-12.2786-8.6777
		c-1.5816,0.013,1.1662,2.3809,12.7363,10.9544c7.2048,5.3322,13.1068,9.8894,13.1035,10.1069
		c0.0033,0.5685-6.1098-3.3814-12.5706-8.1205c-7.8834-5.7819-21.8866-14.5424-22.3932-14.0062
		c-0.5425,0.5764,0.2112,1.2716,3.2547,3.0401c1.3025,0.7504,2.4135,1.7898,2.4298,2.2625c0.013,0.4936,0.7504,1.6973,1.6794,2.7384
		c1.4323,1.6175,0.6526,1.4306-5.8893-1.41c-8.9032-3.854-12.697-4.1478-4.8625-0.3702c1.1306,0.5488,1.1532,0.9064,0.1008,2.017
		c-0.7015,0.7441-1.2896,1.371-1.3025,1.3807c-0.013,0.0163-5.0185-3.3977-11.1673-7.614
		c-6.1491-4.2193-11.4174-7.6429-11.7487-7.6399c-1.6405,0.0196,0.013,1.4732,7.1686,6.3244
		c4.2811,2.9054,9.2963,6.8456,11.1773,8.7831l3.404,3.5148l-2.6699-0.8951c-3.5048-1.1708-6.5549-2.7527-4.7751-2.483
		c0.7018,0.1104,1.3025-0.0359,1.2995-0.3153c-0.0196-0.7274-23.9395-15.2406-25.0701-15.2033
		c-1.3444,0.0359,0.1886,1.3937,4.8692,4.2958c4.174,2.5921,9.9267,8.4861,7.0422,7.2095
		c-0.9094-0.3961-2.5661-0.3915-3.7323,0.0196c-1.7605,0.6137-2.8159,0.2807-6.7432-2.152
		c-4.1774-2.5841-4.7458-2.7464-5.5707-1.5916c-0.8412,1.1888-1.3414,0.9988-6.0646-2.2821
		c-4.8496-3.3651-7.3505-4.5944-7.266-3.5663c0.0163,0.2694,3.9109,3.0824,8.6467,6.2495
		c10.3391,6.9025,12.8208,8.9847,11.0083,9.2215c-0.7148,0.0878-1.845-0.3313-2.485-0.9273
		c-2.2412-2.0852-21.7825-13.9071-22.2275-13.4394c-0.6433,0.6902,0.7826,1.728,10.089,7.3831
		c4.7228,2.8652,8.6141,5.3452,8.6175,5.4849c0.0096,0.141-1.8906-0.333-4.2878-1.0883c-3.729-1.1595-5.3724-2.2232-12.3172-7.9436
		c-4.3982-3.6232-8.2017-6.7791-8.4388-6.9999c-0.2305-0.2225-0.5166,0.01-0.627,0.5086c-0.1331,0.5894,1.1369,1.9814,3.5959,3.9415
		c3.7775,3.0178,3.7905,3.0275,1.0102,1.7542c-1.5397-0.7048-3.2287-1.6468-3.7486-2.0872c-0.5099-0.4188-1.6242-0.76-2.3775-0.7258
		c-0.76,0.0372-1.9425-0.2714-2.5695-0.6709c-0.627-0.4028-1.569-0.5262-2.0496-0.2744c-0.604,0.315-0.4124,0.7521,0.614,1.3724
		c0.8249,0.5036,3.4559,2.4963,5.9053,4.471c3.7612,3.0338,4.3071,3.6834,3.6412,4.3836c-0.445,0.4776-0.8412,0.7797-0.9357,0.7228
		c-0.0842-0.0519-2.6862-2.0968-5.7849-4.5542c-5.285-4.1724-6.8829-5.106-6.8506-4.0001c0.0067,0.2857,2.5661,2.5402,5.72,5.0461
		c5.6814,4.5036,5.7104,4.5409,5.8697,7.284c0.0878,1.5024-0.0423,2.7464-0.2794,2.7401c-0.2405-0.0033-2.3972-1.6584-4.791-3.6934
		c-8.988-7.5893-14.4027-11.6709-14.6984-11.0619c-0.3539,0.7341,4.6613,5.2231,10.1994,9.1324
		c2.1667,1.5334,4.5023,3.3278,5.2331,4.028c4.3786,4.174-8.6208-3.9385-17.9953-11.2308l-3.4689-2.6992l3.3747-0.2322
		C134.2225,226.0864,136.4833,225.6949,137.4675,225.341L137.4675,225.341z M157.85,230.3609
		c3.0923,1.7216,6.1747,3.4433,6.8992,3.8494c0.7211,0.4028-0.1786,0.4108-2.014,0.0096c-2.2475-0.4936-4.6254-1.7363-7.3605-3.8377
		c-2.2119-1.6974-3.8328-3.1103-3.5793-3.1166C152.0518,227.2556,154.7576,228.6443,157.85,230.3609L157.85,230.3609z
		 M184.8752,234.2409c1.8028,1.2816,3.0435,2.5745,2.9427,3.0584c-0.2109,0.9759-3.3129-0.8545-6.3144-3.734
		C178.6579,230.8448,180.6785,231.246,184.8752,234.2409L184.8752,234.2409z M204.2019,237.0329
		c1.5723,1.6012-4.4108-1.382-6.1421-3.0581c-1.9588-1.8973-1.842-1.8776,1.7635,0.2564
		C201.9478,235.4835,203.9162,236.7502,204.2019,237.0329L204.2019,237.0329z M234.0241,217.8861
		c0.9679,0.9144,2.3646,3.2939,3.1832,5.405c1.3904,3.6269,1.3804,3.7177-0.2438,2.2771c-2.017-1.7945-5.72-8.1854-5.1127-8.8287
		C232.1009,216.4748,233.0688,216.9863,234.0241,217.8861L234.0241,217.8861z M292.9207,163.9088
		c1.1628,4.1966,3.719,11.8512,5.7004,17.0939c5.7463,15.179,6.1847,16.4213,5.3013,15.1171
		c-2.472-3.6541-5.2491-6.6637-5.717-6.1717c-0.5681,0.6044,4.6387,7.739,7.2274,9.8877
		c1.7409,1.4469,15.6726,32.0534,14.3019,31.4201c-1.0265-0.481-9.9819-13.771-12.4928-18.5538
		c-2.3353-4.4404-2.2867-4.3772-2.8485-3.7858c-0.2242,0.2355-0.0619,1.2373,0.3572,2.2818
		c1.1206,2.7611,9.6439,15.9324,14.4093,22.2618c2.2671,3.0158,4.5994,6.5549,5.1579,7.8248
		c0.8608,1.9555,3.4629,6.4365,12.5869,21.6461c2.2771,3.8005,0.9257,3.8038-2.3972-0.013
		c-9.4067-10.7645-11.4726-13.6293-17.0044-23.5447c-11.8236-21.1848-19.5836-40.7636-24.1634-60.9608
		c-1.2021-5.3206-3.1705-21.4189-2.6766-21.9451C290.7477,156.381,291.7579,159.7172,292.9207,163.9088L292.9207,163.9088z
		 M244.5155,218.3524c1.3092,2.7624,2.0077,4.8739,1.53,4.6497c-0.4743-0.2255-1.9295-2.6862-3.2321-5.4536
		c-1.2959-2.769-1.991-4.8625-1.5297-4.6467C241.7419,213.1113,243.213,215.5897,244.5155,218.3524L244.5155,218.3524z
		 M240.907,223.9394c2.0074,4.0356,2.2379,6.027,0.3961,3.5094c-1.9295-2.6327-3.9561-7.6655-2.92-7.2175
		C238.8474,220.4329,240.0039,222.1299,240.907,223.9394L240.907,223.9394z M247.7835,217.9706
		c1.546,2.0805,3.4203,5.1825,4.0959,6.7694c1.2147,2.8602,1.2051,2.9104-0.4287,1.9994c-1.1402-0.632-2.5824-2.7953-4.4824-6.7335
		c-1.53-3.1622-2.6313-5.8145-2.4168-5.8354C244.7594,214.1508,246.2338,215.8887,247.7835,217.9706L247.7835,217.9706z
		 M336.7881,119.8663c0.2727,0.5588,0.2727,1.0591-0.0033,1.0637c-0.2794,0.0067-0.6237-0.3978-0.757-0.8964
		C335.6867,118.7068,336.174,118.6027,336.7881,119.8663L336.7881,119.8663z M298.8453,172.2502
		c2.0399,4.4291,4.1481,8.2426,4.668,8.4505c1.3381,0.5292,2.2119-0.5149,2.2475-2.6832c0.0392-2.6732,0.7893-1.4958,4.1547,6.5273
		c1.679,3.9971,5.4569,11.9277,8.364,17.5566c4.3008,8.3091,5.6066,10.3261,6.8473,10.5586
		c1.2473,0.2418,2.657,2.5545,7.6788,12.6534c3.3911,6.821,8.4681,17.0417,11.3329,22.8106
		c2.8682,5.7832,5.8631,11.1623,6.7013,12.0361c1.403,1.4585,1.6401,1.4456,3.0694-0.2209c1.5267-1.7798,1.5756-1.7769,4.015,0.5295
		c1.6694,1.572,3.0824,3.9043,4.3686,7.2241c1.0524,2.7122,2.2934,5.431,2.7807,6.0902c2.329,3.1476,3.9821,6.3018,7.0711,13.4574
		c4.0539,9.42,4.8758,10.362,6.7012,7.6821c0.3932-0.5718,1.4941,1.8158,3.9825,8.6371c3.2513,8.9002,5.3758,16.5627,4.648,16.7443
		c-0.9842,0.2438-0.8738,0.744,3.8361,17.664c2.3227,8.3803,4.2163,15.9064,4.2033,16.7869
		c-0.0196,1.874-1.085-1.4845-5.9735-18.8461c-1.9814-7.0489-3.8361-12.8534-4.0829-12.8467
		c-0.2534,0.0096-0.5069,0.7274-0.5458,1.5916c-0.0456,0.8608-0.6237-0.4128-1.2669-2.813
		c-1.2733-4.7132-1.231-6.2236,0.0715-2.5239c0.4647,1.3155,1.1046,2.2478,1.4845,2.1504
		c1.0361-0.2794-2.6992-10.1182-7.2304-19.0314c-4.3234-8.4974-4.3234-8.4974-4.9211-7.8608
		c-0.2501,0.2598,0.916,3.2321,2.5695,6.5842c1.6564,3.3455,3.6185,8.822,4.3556,12.1289
		c0.747,3.3392,2.4946,10.1149,3.9339,15.1887c2.7251,9.6602,3.0824,12.3009,0.8053,5.9572
		c-0.7437-2.0789-1.5849-3.7616-1.861-3.7549c-0.955,0.0519-3.4303-7.8704-4.4957-14.396c-0.5748-3.5374-1.845-7.8218-2.8615-9.6765
		c-1.0135-1.8384-2.9656-6.1588-4.3819-9.6569c-2.8552-7.0844-2.7807-6.9447-3.4918-6.1847
		c-0.2794,0.2924,0.013,1.7865,0.6559,3.3425c1.2377,2.9849,1.569,4.19,4.0603,14.8377c0.916,3.9206,1.4259,7.0811,1.1469,7.0844
		c-1.0265,0.0196-7.5784-18.5604-8.9035-25.2354c-0.7341-3.716-2.1341-10.8201-3.1053-15.7508
		c-0.9679-4.9274-2.1178-9.15-2.5465-9.3678c-0.4417-0.2175-0.5358,0.9386-0.2209,2.631
		c2.9623,15.7864,5.8987,34.558,5.3302,34.0155c-1.3251-1.2473-4.6902-7.88-4.9826-9.8192
		c-0.3835-2.5695-1.1954-3.557-1.7542-2.1374c-0.3246,0.8315-0.6789,0.5748-1.8873-1.3318
		c-2.6699-4.2325-4.0439-7.9452-5.8175-15.6433c-2.1211-9.2315-3.9009-10.8364-2.0559-1.855
		c0.7341,3.583,1.1106,6.2629,0.8475,6.019c-0.2694-0.2534-2.4457-3.5763-4.8948-7.4742
		c-6.0417-9.605-8.8579-17.7255-11.5671-33.3606c-1.2896-7.4596-1.8547-9.3096-2.5984-8.5154
		c-0.5362,0.5685,1.6046,12.8647,3.6445,20.9153c0.786,3.0987,1.2114,5.6259,0.9583,5.6322
		c-0.2568,0.0067-2.4102-3.7679-4.8173-8.4535c-4.0114-7.7972-4.6936-9.9622-8.7083-27.5075
		c-2.3972-10.4462-4.7425-19.2197-5.2005-19.4355c-0.458-0.2162,0.6204,6.048,2.4035,13.943
		c1.7835,7.8963,3.1576,14.4123,3.0601,14.5145c-0.0974,0.0975-3.2128-6.6946-6.9221-15.0962
		c-3.7127-8.4046-6.8895-15.4112-7.0455-15.5622c-0.159-0.1493-0.2761-2.1161-0.2598-4.4029
		c0.0226-2.2901-0.2664-4.1205-0.6333-4.1122c-0.3735,0.0096-0.6919,0.9044-0.7178,1.9831
		c-0.0263,1.0817-0.1886,1.8254-0.3639,1.6631c-1.2733-1.2021-10.7582-28.068-9.9137-28.0956
		C294.98,164.1803,296.8024,167.8231,298.8453,172.2502L298.8453,172.2502z M234.6055,238.9218
		c2.9393,1.991,5.3887,3.7809,5.3951,3.9498c0.0163,0.7404-7.9549-3.7908-9.9167-5.6405
		C226.933,234.2588,228.661,234.9084,234.6055,238.9218L234.6055,238.9218z M245.227,226.4842
		c0.6918,1.2829,1.0491,2.6067,0.7796,2.8974c-0.2827,0.2974-0.6952,0.1493-0.9386-0.3379c-0.2372-0.4643-1.072-2.1065-1.8158-3.555
		C241.5632,222.1788,243.4016,223.0995,245.227,226.4842L245.227,226.4842z M241.5729,231.7446
		c2.1404,1.3401,7.0096,1.2799,8.3188-0.1054c0.5944-0.63,1.8351-0.6722,3.3132-0.1167c2.7996,1.0604,9.4587,4.6513,12.5021,6.7382
		c1.1695,0.8106,4.3819,2.9088,7.1396,4.6597c9.1147,5.8158,11.7391,7.6545,20.4803,14.3328
		c10.368,7.9256,27.6778,22.5491,28.7987,24.339c1.6401,2.6114-0.2568,2.186-3.1446-0.7081
		c-1.6012-1.5982-3.7742-3.2743-4.7684-3.6608c-1.0977-0.4354-2.0137-1.2506-2.2898-2.0433
		c-0.5944-1.715-1.5949-2.6114-1.7931-1.6079c-0.2242,1.1599-2.0562-0.0519-6.493-4.2811c-4.3885-4.177-6.5812-4.8007-3.3199-0.9483
		l2.0952,2.4654l-2.6343,0.0778c-2.462,0.0748-3.1961-0.3799-11.3526-6.9414c-4.791-3.8557-10.2187-8.4292-12.0411-10.1505
		c-1.8643-1.7509-3.5407-2.8945-3.8198-2.5954c-0.2761,0.2924,0.1623,1.1562,0.9583,1.9099c1.114,1.0524,1.1529,1.3251,0.159,1.1565
		c-0.7081-0.1171-3.2191-2.0107-5.561-4.2033c-2.3549-2.1796-4.9567-4.205-5.7882-4.4957
		c-0.8382-0.2874-1.2896-0.2841-1.0068,0.0017c0.2661,0.2857-0.1008,0.4271-0.7893,0.3103
		c-0.7211-0.1217-2.4168-1.2686-3.8005-2.5645c-3.6219-3.396-4.1155-1.9116-0.5392,1.6355
		c1.7669,1.7589,0.3606,0.7876-3.5277-2.4264c-3.5534-2.9317-8.2666-6.7352-10.4299-8.4033
		C238.2986,231.0657,237.8309,229.398,241.5729,231.7446L241.5729,231.7446z M248.8456,227.7478
		c0.0259,0.8282-0.1753,0.9307-0.76,0.3815c-1.062-1.0018-1.1402-2.3939-0.1071-1.9099
		C248.4687,226.4503,248.8259,227.0869,248.8456,227.7478L248.8456,227.7478z M268.5462,256.639
		c-0.3542,1.7183-1.9947,0.939-5.6033-2.6796l-3.3488-3.3588l3.4626,2.9167c4.947,4.1644,5.2457,2.7318,0.4317-2.0463
		l-3.9918-3.9628l4.6317,4.018C267.4416,254.3978,268.7018,255.8564,268.5462,256.639L268.5462,256.639z M298.056,230.1078
		c1.6957,1.6029,7.4939,13.7235,7.7307,16.1582c0.0974,1.067,1.842,5.9199,3.8657,10.7988
		c3.7939,9.1566,5.0964,13.4963,2.1763,7.2627c-2.1797-4.6447-8.2572-19.4372-10.3165-25.1216
		c-0.8934-2.4557-2.1115-4.7358-2.7252-5.0817c-1.0394-0.5864,4.3786,14.2823,8.9714,24.6264
		c1.1825,2.6766,2.0399,4.9211,1.871,4.9274c-0.4969,0.0196-7.6203-15.5329-11.9014-25.9888
		c-2.8259-6.8945-3.232-8.4811-2.2056-8.6145C296.2014,228.9839,297.3642,229.4612,298.056,230.1078L298.056,230.1078z
		 M250.4208,315.6042c1.2896,3.0857,2.0496,5.8467,1.7023,6.2169c-0.3802,0.4028-1.4489-1.7669-2.7188-5.5221
		c-1.1402-3.3618-1.9165-6.1943-1.7053-6.2203C247.9132,310.0624,249.1153,312.5085,250.4208,315.6042L250.4208,315.6042z
		 M256.4495,318.8781c1.3807,3.4303,2.3616,6.4022,2.183,6.6231c-0.8575,1.0461-3.7972-3.1539-6.0513-8.6367
		c-2.339-5.7074-2.3682-5.9638-0.5491-5.1097C253.588,312.4889,254.4066,313.8144,256.4495,318.8781L256.4495,318.8781z
		 M313.3032,256.795c2.9234,3.4985,10.089,18.5504,8.2117,17.2512c-0.7341-0.5099-2.4135-3.7712-3.739-7.2564
		c-1.3285-3.4822-2.5791-6.4834-2.7804-6.6783c-0.8801-0.8252-1.3285,0.8768-0.627,2.3712c1.9036,4.0406,3.3069,8.195,2.2997,6.8147
		c-1.3933-1.9262-6.4541-14.4286-6.0221-14.89C310.8412,254.1996,312.0333,255.278,313.3032,256.795L313.3032,256.795z
		 M259.6816,317.3125c0.627,0.6237,2.0433,3.6804,3.1672,6.8506c1.8643,5.2557,1.8903,5.6422,0.3279,4.7588
		c-1.257-0.6952-2.2771-2.4753-3.846-6.6653C257.2518,316.6988,257.3656,315.0357,259.6816,317.3125L259.6816,317.3125z
		 M257.9763,334.8109c2.0692,5.3561,4.1351,9.7477,4.5735,9.7188c0.4776-0.0263,0.6659-0.3316,0.471-0.7633
		c-0.1849-0.3898-1.7505-4.4178-3.5211-9.0302c-2.8974-7.5617-3.0238-8.2276-1.377-7.3638c1.4582,0.77,2.5528,3.0308,5.6874,11.7328
		c2.1311,5.9246,4.0117,10.8946,4.1707,11.0472c0.1786,0.1623,0.4906,0.0615,0.7893-0.2568
		c0.2794-0.2891-1.0231-4.8107-2.8712-9.9785c-3.2257-9.0266-3.2809-9.3742-1.2929-7.7793
		c1.5982,1.2699,2.7611,3.5048,4.9244,9.4034c2.8389,7.734,3.56,9.0984,4.3493,8.2539c0.2209-0.2342-0.8838-3.6901-2.472-7.747
		c-2.5369-6.4544-2.6603-7.1203-1.0457-5.6455c1.221,1.1172,2.644,4.1122,4.2648,8.9847c2.5628,7.7047,2.764,8.1302,3.5244,7.3279
		c0.2498-0.2697-0.5069-3.2969-1.699-6.8117c-3.3555-9.9037-0.2827-6.3014,3.4725,4.0766c2.7837,7.6821,2.9526,8.5852,1.4452,7.8282
		c-0.9453-0.474-2.3613-1.4289-3.1865-2.1534c-0.8282-0.7178-1.9032-1.1791-2.4328-1.0361
		c-0.6918,0.1946,0.0616,1.0002,2.8552,3.0368c2.0755,1.5234,4.3849,3.242,5.0897,3.8005c0.6922,0.5458,1.6275,1.0102,2.0044,1.0072
		c1.4293-0.0196,3.7549,3.0468,5.0541,6.662c0.7537,2.0789,1.5982,3.9921,1.894,4.2682c1.2407,1.1791,1.3381-0.458,0.1946-3.5081
		l-1.221-3.271l1.8351,1.0298c1.4326,0.8056,2.5239,2.7448,4.9829,8.8579c2.0396,5.0704,2.7155,7.5391,1.9262,7.0029
		c-2.8781-1.9521-1.7542,0.3705,3.7679,7.8022c4.2063,5.6489,5.3758,7.601,4.174,6.9544
		c-1.397-0.7437-12.7785-14.7336-16.1569-19.8726c-0.6626-0.9972-1.0783-1.1562-1.3607-0.5229
		c-0.2568,0.5718,1.7572,3.7227,5.4113,8.4585c3.2094,4.1511,5.3402,7.3376,4.7521,7.0874
		c-0.5877-0.2565-4.2908-4.489-8.2017-9.3871c-3.9076-4.8918-7.2564-8.9328-7.4124-8.9424c-1.3384-0.0778,0.0226,2.316,4.1544,7.302
		c2.6699,3.2224,4.9178,6.1588,5.0349,6.5712c0.1071,0.4124-3.6512-1.4485-8.4162-4.1644
		c-4.7588-2.7122-8.8806-4.8981-9.2248-4.8885c-1.8257,0.0585,0.1134,1.4811,8.4096,6.1847
		c12.8111,7.263,25.3002,15.2568,28.3926,18.1739c1.4845,1.4,3.0112,2.4035,3.4725,2.2671c0.4384-0.1234,1.9099,0.799,3.1798,1.9977
		c1.2766,1.2018,2.9982,2.4135,3.7453,2.6277c0.7567,0.2209,4.2485,2.1311,7.7666,4.2585
		c3.4918,2.1178,11.6739,6.334,18.0795,9.3223l11.6968,5.4636l5.743,6.5126c3.1539,3.57,6.2818,7.0681,6.9381,7.747
		c1.1173,1.1465,1.0461,1.1758-1.072,0.4387c-1.2407-0.4287-3.8913-2.2997-5.876-4.1318c-2.0299-1.8839-3.8261-3.1216-4.1088-2.8196
		c-0.2794,0.2924,0.2694,1.257,1.2247,2.1537c1.3315,1.2536,1.4259,1.5786,0.4318,1.403c-0.7211-0.1201-1.7246-0.6137-2.2542-1.114
		c-0.5358-0.5002-1.5949-0.8834-2.3972-0.8608s-8.3803-3.2354-16.9103-7.2693c-14.4253-6.828-18.4952-8.4521-16.5398-6.6071
		c1.1628,1.0947,21.6557,10.9594,29.2437,14.0811l6.5093,2.6703l8.0979,8.4289c4.4468,4.6387,8.244,8.4422,8.4259,8.4488
		c0.1946,0.013,0.4158-0.3639,0.5196-0.8641c0.1071-0.5392-2.2608-3.1898-6.1391-6.8406c-5.8404-5.5092-7.6788-8.1465-4.8592-6.9773
		c0.6396,0.2697,4.2096,3.3588,7.9808,6.9121c3.9821,3.752,7.1623,6.334,7.6429,6.2043c0.5232-0.156-1.0361-1.9977-4.359-5.1649
		c-4.0213-3.8231-4.8333-4.8495-3.6219-4.5605c1.1402,0.2631,4.947,3.8916,14.263,13.5874
		c6.9803,7.2664,12.7037,13.3144,12.7007,13.4315c0.0096,0.1137-15.5526-6.1035-34.6262-13.8439l-34.6391-14.0454l-3.5078-4.1477
		c-12.3368-14.5653-15.9846-18.7097-16.4556-18.7068c-1.2214,0.01,0.5977,2.6636,6.2559,9.1081
		c10.3328,11.7976,11.0313,12.72,8.9554,11.8755c-1.871-0.7634-12.4665-11.5571-15.6497-15.942
		c-1.0946-1.5008-2.0659-2.3842-2.329-2.1081c-0.6629,0.7048,0.0648,1.7476,6.1814,8.8709l5.7393,6.6783l-14.8507-6.058
		c-14.6981-5.9964-16.6472-6.6523-16.6212-5.5544c0.0196,0.4547,17.1637,7.6396,38.6768,16.1922
		c38.29,15.2246,49.0901,19.8533,49.6229,21.2889c0.5066,1.3481,6.4185,9.2541,11.9762,16.0106
		c1.0328,1.2473,2.4557,3.0664,3.1638,4.0406l1.2926,1.7672l-3.5015-0.9616c-4.2618-1.1821-5.7689-2.5009-14.0614-12.3172
		c-5.7267-6.7984-7.6562-8.6012-7.6106-7.1363c0.0063,0.2305,3.1898,4.1707,7.0715,8.7701l7.0581,8.361l-6.6101-1.9229
		c-3.6219-1.0494-7.0162-2.2838-7.5065-2.7188c-0.5002-0.4354-1.1728-0.6888-1.5008-0.5555
		c-1.5038,0.6237-8.036-2.3616-10.7452-4.9114c-1.5916-1.5038-3.1472-2.511-3.4236-2.2186c-0.2661,0.2827,0.156,1.1628,0.939,1.9295
		l1.4356,1.3967l-2.0529-0.4773c-1.4486-0.338-2.79-1.3481-4.5443-3.427c-1.702-2.0203-2.657-2.761-3.0371-2.3616
		c-0.302,0.3216,0.0878,1.1858,0.8838,1.9362c1.7505,1.6531,0.6496,1.6564-3.7227,0.0163
		c-3.6997-1.3937-5.0964-1.6112-5.0801-0.7896c0.013,0.2794,2.6992,1.5074,5.8953,2.6929l5.8664,2.17l4.7295,6.1617
		c2.6051,3.3977,5.0478,6.2332,5.4503,6.3374c1.2021,0.2987-0.1753-2.1537-3.8491-6.8732l-3.4007-4.3689l2.3449,0.6562
		c2.1148,0.5911,2.8974,1.3348,8.1368,7.8022c6.6264,8.1787,6.9773,8.5426,7.5491,7.9353c0.2502-0.2631-1.6015-2.9723-4.1255-6.045
		c-6.1195-7.445-6.2299-7.734-2.5399-6.662c2.657,0.7763,3.5793,1.4682,6.8862,5.1938c2.6766,3.0145,3.9791,4.1251,4.3656,3.7127
		c0.2987-0.3116-0.3446-1.4389-1.4-2.4457c-2.6895-2.5728-3.1183-4.2518-0.8771-3.4303c1.0457,0.3898,3.3195,2.4361,5.8564,5.272
		c6.1491,6.8862,12.2297,12.5576,12.8111,11.9437c0.2827-0.3054-1.2603-2.2315-3.5634-4.4664
		c-2.2641-2.1793-5.5674-5.6322-7.435-7.75l-3.3654-3.8235l3.8297,1.254l3.8328,1.2536l8.842,9.93
		c4.8625,5.4732,9.0103,10.1019,9.2311,10.3098c0.2275,0.2112-0.3606,0.2728-1.3381,0.1464
		c-0.9775-0.1301-1.7249,0.0519-1.715,0.4351c0.0096,0.3639,4.1348,1.9911,9.134,3.6023
		c5.0086,1.6046,16.1629,5.5121,24.7222,8.6597c8.5689,3.1476,16.0072,5.8338,16.4945,5.9605
		c2.4102,0.627-17.4365-0.5358-27.3631-1.6012l-3.4626-0.3735l0.2827-1.9425c0.5585-3.7971-1.5626-4.4597-21.0454-6.5582
		c-7.916-0.8478-15.663-2.0659-16.1599-2.5369c-0.1171-0.1104,0.5458-0.7893,1.4778-1.5104c1.988-1.543,1.4489-3.3555-1.2051-4.0992
		c-0.9579-0.2664-7.4869-1.3092-14.555-2.3193c-10.6933-1.5234-22.6499-3.8165-23.3514-4.4794
		c-0.0911-0.0811,0.172-0.7404,0.5781-1.4615c1.0135-1.8158,0.1168-2.462-6.5616-4.7391
		c-6.1454-2.0985-24.8878-9.8648-25.7419-10.6704c-0.299-0.2827-0.2275-0.8186,0.1686-1.244
		c1.2703-1.3448-0.5422-3.245-7.1719-7.4939c-3.56-2.2867-8.1694-5.4439-10.3132-7.0844l-3.885-2.9557l1.2473-1.689l1.2343-1.6894
		l-8.7312-8.0231c-8.3803-7.7014-8.6856-8.0683-7.7241-9.0884c1.2863-1.3611,0.3832-3.1735-4.5312-9.1241
		c-5.8112-7.0325-7.6269-10.3587-6.5256-11.921c1.4811-2.0918,0.8345-4.486-3.7875-13.9447
		c-5.9572-12.1908-7.1786-15.1075-8.533-20.4117c-0.9649-3.7649-0.916-4.6906,0.289-5.5547
		c2.2216-1.5849,2.1144-5.1872-0.3802-12.2231c-1.257-3.56-2.9982-8.8513-3.9043-11.8754
		c-1.5916-5.3239-1.5886-5.4536,0.3346-5.8953c2.7088-0.627,2.6666-1.5916-0.6562-14.2337
		c-2.4264-9.2348-2.657-11.0409-1.5916-12.3531c0.7534-0.929,1.0491-2.5009,0.7534-3.9954c-0.4806-2.462-0.4806-2.462,0.8901-1.4715
		C253.6106,324.6015,255.8522,329.3017,257.9763,334.8109L257.9763,334.8109z M268.8093,329.2758
		c1.7343,4.8625,1.7472,5.1582,0.1364,3.6867c-0.9583-0.8705-2.6021-3.888-3.6282-6.6327
		c-1.7379-4.6417-1.7476-4.9244-0.1397-3.6771C266.2983,323.5102,267.5976,325.8814,268.8093,329.2758L268.8093,329.2758z
		 M332.6885,263.2039c1.9944,2.2445,4.801,4.7391,6.4641,5.7426c2.5432,1.5267,3.5667,2.7577,7.4936,9.0172
		c2.485,3.9595,4.5442,7.4643,4.5442,7.7307c-0.0096,0.2694-1.2633-0.6789-2.7478-2.0822
		c-1.4878-1.4033-2.9626-2.3323-3.2354-2.0433c-0.2857,0.2957,1.0654,2.0044,3.0827,3.9046
		c3.2969,3.1083,3.7223,3.8687,5.3172,9.5172c2.001,7.0811,1.1402,7.0878-1.3058,0.0067c-2.16-6.2269-2.0529-6.0157-2.6766-5.3531
		c-0.2727,0.2924,0.3639,3.2287,1.4066,6.4834c1.0394,3.258,1.8384,6.0287,1.7572,6.1165
		c-0.2564,0.2727-6.4282-13.6038-6.9088-15.5363c-0.5232-2.1181-4.2552-8.0493-8.4196-13.4088
		c-3.2643-4.1967-8.9488-13.3792-8.543-13.805C329.0507,259.3515,330.743,261.008,332.6885,263.2039L332.6885,263.2039z
		 M274.211,333.5958c2.0529,5.8308-0.3542,4.2066-2.6992-1.8157c-1.5234-3.9173-1.556-4.3719-0.2534-3.404
		C272.0866,328.9867,273.4184,331.3513,274.211,333.5958L274.211,333.5958z M282.3249,329.932
		c0.3802,0.6074-0.146,0.315-1.1528-0.6333c-1.0105-0.9519-1.3351-1.4585-0.7018-1.1209
		C281.1265,328.545,281.9191,329.2987,282.3249,329.932L282.3249,329.932z M288.5388,331.4814
		c0.458,0.9972-0.627,0.2405-3.2676-2.2801l-3.9565-3.7812l3.2676,2.2804C286.3951,328.9608,288.1557,330.6432,288.5388,331.4814
		L288.5388,331.4814z M279.9669,337.38c3.5048,3.3069,3.8491,3.8494,3.1961,5.0185c-0.6562,1.1628-1.0038,1.0654-3.076-0.8867
		c-1.9132-1.8028-4.7847-7.0518-4.1966-7.6722C275.9682,333.7551,277.7873,335.3337,279.9669,337.38L279.9669,337.38z
		 M326.8677,286.3408c3.2646,3.076,2.9334,3.2743-0.8931,0.5229c-1.7313-1.244-2.6703-2.2704-2.3679-2.5921
		C323.8861,283.9762,325.3314,284.8922,326.8677,286.3408L326.8677,286.3408z M286.0475,354.4919
		c1.9585,6.4315,2.0982,7.5617,0.8479,6.9737c-1.0721-0.5099-2.3486-3.1442-4.5898-9.4912
		c-3.0827-8.7472-3.086-8.7831-0.8512-6.9707C283.3157,346.5077,284.1084,348.1448,286.0475,354.4919L286.0475,354.4919z
		 M287.7529,345.3968c3.3002,3.7353,2.9104,5.0801-0.5262,1.8384c-1.9165-1.7995-3.7779-5.1808-2.8845-5.2231
		C284.5664,341.9991,286.1061,343.5321,287.7529,345.3968L287.7529,345.3968z M291.5563,336.5747
		c0.2794,0.5814,0.0489,0.5844-0.617,0.0193c-0.5621-0.4677-0.77-0.9064-0.4417-0.916
		C290.8289,335.6717,291.3192,336.0841,291.5563,336.5747L291.5563,336.5747z M296.5327,338.2638
		c0.6888,0.8671-0.0715,0.3376-1.6598-1.1662c-1.5916-1.5008-2.1667-2.2252-1.2603-1.5886
		C294.522,336.1427,295.8474,337.393,296.5327,338.2638L296.5327,338.2638z M294.3759,342.9444
		c1.9195,2.4265,2.0722,2.7773,0.604,1.4845c-1.8513-1.6468-4.0603-4.6287-3.4333-4.6517
		C291.7123,339.7675,293.0019,341.2131,294.3759,342.9444L294.3759,342.9444z M336.3008,295.5334
		c0.2338,0.5002-0.1723,0.3409-0.916-0.3606c-0.7408-0.6952-0.9227-1.0883-0.4124-0.8901
		C335.4885,294.4843,336.0732,295.0331,336.3008,295.5334L336.3008,295.5334z M292.3034,359.2406l2.2545,7.4417l-2.1374-1.7216
		c-1.7346-1.39-2.5695-3.1183-4.4016-9.1566l-2.2575-7.4417l2.1374,1.715C289.6431,351.471,290.4747,353.2056,292.3034,359.2406
		L292.3034,359.2406z M308.8272,356.116c2.0203,3.9302,3.5278,7.0711,3.3847,7.0485c-0.1464-0.0293-3.1053-3.1961-6.636-7.104
		c-5.6911-6.3048-6.0094-6.7691-2.943-4.3234c4.4079,3.5181,4.0636,2.2838-0.9064-3.2903c-6.048-6.7758-6.5256-8.1661-1.2051-3.5114
		C304.7343,348.6255,305.5432,349.7135,308.8272,356.116L308.8272,356.116z M303.0423,340.3912
		c0.2401,0.4969-0.1627,0.338-0.9064-0.3605c-0.7437-0.7048-0.9257-1.0913-0.4158-0.8901
		C302.2334,339.3454,302.8181,339.8909,303.0423,340.3912L303.0423,340.3912z M347.2016,294.0229
		c1.3578,3.0271,1.5201,3.8913,0.5781,3.0045c-0.7437-0.7015-2.3612-5.0478-2.017-5.4147
		C345.8991,291.4698,346.5587,292.5741,347.2016,294.0229L347.2016,294.0229z M301.8954,361.5078
		c1.1239,1.3611,2.157,3.2094,2.2315,4.0117c0.0845,0.8382,0.6789,3.2743,1.3514,5.5381l1.2018,4.041l-2.6147-2.1667
		c-2.1048-1.7443-3.0178-3.2384-4.6157-7.604c-1.3415-3.6804-2.2122-5.2101-2.6669-4.7262
		c-0.3799,0.3995-0.0259,2.3712,0.8023,4.4694c0.8867,2.2511,1.1076,3.7616,0.5491,3.7779
		c-0.8934,0.0293-2.7807-4.499-4.957-11.8658l-1.075-3.6478l3.8524,2.8259C298.0886,357.7302,300.7393,360.1177,301.8954,361.5078
		L301.8954,361.5078z M356.2771,293.0028c0.5069,0.481,1.6664,3.0241,2.6247,5.7333c1.6112,4.5668,1.6112,4.8203,0.0163,3.9206
		c-1.2669-0.7082-2.0496-2.0789-3.0241-5.3043C354.5232,292.8471,354.6533,291.4698,356.2771,293.0028L356.2771,293.0028z
		 M314.8137,350.6232l0.7081,2.3257l-2.3223-2.7415c-1.2833-1.5104-3.0308-3.4755-3.8979-4.3723
		c-1.2343-1.2829-0.8835-1.1951,1.6112,0.4158C313.537,347.9336,314.2193,348.7133,314.8137,350.6232L314.8137,350.6232z
		 M315.7234,341.3072c0.3865,0.6463-0.0133,0.4936-0.9193-0.3606c-0.8964-0.8478-1.1921-1.3448-0.6756-1.1402
		C314.6513,340.0113,315.3335,340.6543,315.7234,341.3072L315.7234,341.3072z M382.9191,280.1139
		c2.459,5.272,3.2191,7.6529,2.5595,7.9778c-0.6885,0.3442-1.075-0.3476-1.4485-2.6117c-0.64-3.8979-2.0366-4.187-1.5949-0.3313
		l0.3313,2.8422l-1.1498-3.3554c-2.1567-6.3274-2.6699-8.1628-2.8226-10.089c-0.0748-0.9842,0.0389-1.8839,0.2401-1.9066
		C379.252,272.6203,380.993,275.9887,382.9191,280.1139L382.9191,280.1139z M349.0793,309.5818
		c0.2794,0.5814,0.0486,0.5881-0.614,0.0196c-0.5618-0.4743-0.7697-0.9064-0.445-0.9127
		C348.3515,308.6691,348.8421,309.0915,349.0793,309.5818L349.0793,309.5818z M355.5041,306.8078
		c0.4417,0.8056,0.5814,1.4811,0.302,1.4911c-0.2824,0.0096-0.8931-0.6562-1.3381-1.4519c-0.4451-0.8089-0.5847-1.4845-0.302-1.4911
		C354.4484,305.3429,355.0591,306.0055,355.5041,306.8078L355.5041,306.8078z M376.0459,286.0744
		c0.4384,1.2377,0.6952,2.7092,0.5651,3.2873c-0.1364,0.6366-0.4287,0.2405-0.7534-1.0135
		c-0.2764-1.0847-0.6562-2.5076-0.8026-3.0272C374.4607,283.2844,375.2859,283.9047,376.0459,286.0744L376.0459,286.0744z
		 M315.4992,357.3404c0.471,0.7244,2.1989,2.9886,3.8068,4.9989c2.4394,3.0501,10.3617,19.4927,9.4034,19.4961
		c-0.1686,0-2.9786-3.1153-6.2722-6.961c-6.1165-7.1266-9.3905-12.6292-10.6444-17.8523l-0.6692-2.8096l1.7542,0.906
		C313.8231,355.6058,315.0378,356.6289,315.4992,357.3404L315.4992,357.3404z M387.0476,280.0457
		c2.2186,6.045,4.9893,15.5818,4.7977,16.5042c-0.302,1.4845-7.0129-16.9392-6.8929-18.9306
		c0.0682-1.1369,0.1756-2.1534,0.2275-2.2412C385.2351,275.2903,386.0667,277.3628,387.0476,280.0457L387.0476,280.0457z
		 M319.9363,354.0175c2.3809,3.1053,5.4017,9.2637,4.8429,9.8615c-0.5488,0.5814-6.6035-8.1042-7.3768-10.5793
		c-0.5002-1.6016-0.7793-2.9626-0.617-2.9656C316.9574,350.3308,318.3574,351.9646,319.9363,354.0175L319.9363,354.0175z
		 M303.799,380.3898c4.0603,9.7414,5.9442,10.8783,2.1697,1.3122l-2.8063-7.1234l2.3646,1.5363
		c1.858,1.2021,2.7285,2.4201,4.0569,5.6878c1.8158,4.4597,2.3583,5.2654,3.0601,4.5312c0.2501-0.2761,0.0259-1.4193-0.5329-2.6377
		c-1.4063-3.1313-0.4221-3.3747,2.498-0.6266c1.6405,1.546,3.3977,4.2682,4.9274,7.6525c1.2962,2.8715,2.7058,5.5577,3.1153,5.9412
		c1.4875,1.4033,1.0361-0.7796-1.0331-4.9666c-2.4231-4.9081-1.6631-5.1483,3.5893-1.1465
		c2.7384,2.0789,28.4122,30.0656,32.388,35.308c0.9746,1.2832-13.6001-5.3499-22.4517-10.2187
		c-9.8355-5.4084-14.9126-9.605-20.5092-16.9559c-4.0799-5.3531-5.5544-6.7272-5.5351-5.1679c0,0.3346,1.5919,2.6992,3.5211,5.2231
		c1.9295,2.5302,2.8878,4.0862,2.1277,3.4366c-2.9493-2.5109-13.1813-16.6602-12.3368-17.0693
		c0.4969-0.2405-0.2794-3.2646-1.8936-7.4027C296.6723,367.8548,299.5535,370.213,303.799,380.3898L303.799,380.3898z
		 M320.1572,350.6977c0.4447,0.8056,0.5844,1.4781,0.2987,1.4878c-0.2827,0.0067-0.8867-0.6529-1.3351-1.4552
		c-0.4384-0.8023-0.5814-1.4811-0.2987-1.4878C319.1047,349.2295,319.7088,349.8924,320.1572,350.6977L320.1572,350.6977z
		 M363.144,303.4916c0.4221,0.3961,0.5748,0.9809,0.3216,1.257c-0.2501,0.2598-0.7181,0.0096-0.9942-0.5425
		c-0.2791-0.5555-0.4318-1.1432-0.3213-1.257C362.2606,302.8353,362.7186,303.0888,363.144,303.4916L363.144,303.4916z
		 M361.4094,312.9891c2.5402,6.1295,2.5988,6.7628,0.328,3.6967c-2.3776-3.2191-3.8554-7.0811-3.0305-7.9582
		C359.1746,308.2337,359.9379,309.4454,361.4094,312.9891L361.4094,312.9891z M365.2714,315.1688
		c1.8321,4.33,2.9527,7.7244,2.4687,7.4872c-0.4936-0.2405-2.332-3.9661-4.0895-8.2699c-1.7605-4.3008-2.8745-7.6692-2.4687-7.4839
		C361.5817,307.0872,363.4397,310.8358,365.2714,315.1688L365.2714,315.1688z M310.9742,371.8761
		c3.1672,3.6641,4.7069,5.9119,4.317,6.321c-0.3217,0.338-0.2794,1.41,0.0908,2.2997c0.601,1.4196,0.2175,1.3058-2.6766-0.8249
		c-3.1442-2.3097-3.5144-2.8748-5.2976-8.0068c-1.0557-3.0275-1.7898-5.5025-1.6341-5.4962
		C305.9234,366.182,308.2847,368.7678,310.9742,371.8761L310.9742,371.8761z M383.2408,293.7661
		c1.2244,4.1221,1.1239,5.2005-0.1982,2.1278c-1.2603-2.9234-1.9425-5.7689-1.387-5.7722
		C381.9349,290.1283,382.6364,291.7395,383.2408,293.7661L383.2408,293.7661z M325.4777,356.9669
		c1.1239,1.3644,2.1697,2.9723,2.3776,3.6412c0.3572,1.1435-1.1595-0.5685-3.7419-4.2193
		C322.4373,354.0142,323.3759,354.4107,325.4777,356.9669L325.4777,356.9669z M387.2392,289.7352
		c0.2731,0.5651,0.2697,1.0591-0.003,1.0654c-0.2827,0.01-0.6237-0.3995-0.757-0.8997
		C386.1349,288.579,386.6285,288.4686,387.2392,289.7352L387.2392,289.7352z M331.383,356.0705
		c0.5522,0.7437-0.0715,0.3346-1.3937-0.916c-1.3285-1.2473-1.7639-1.845-0.9972-1.3384
		C329.7392,354.3033,330.8568,355.359,331.383,356.0705L331.383,356.0705z M369.7737,314.0123
		c2.6892,3.3165,6.795,14.0551,5.5933,14.6335c-0.8089,0.3895-1.1172,0.0779-1.7183-1.7216
		c-0.5781-1.728-0.9257-2.1081-1.6046-1.7606c-0.6074,0.3087-1.3937-1.0168-2.6573-4.4697
		c-1.4356-3.9043-1.4974-4.489-0.2987-2.8682c2.1667,2.9234,2.2282,0.929,0.0778-2.6407
		C366.9834,311.5469,367.2888,310.9492,369.7737,314.0123L369.7737,314.0123z M341.2737,353.6114
		c1.9359,1.1369,1.9847,1.2832,0.5877,1.6568c-1.1951,0.3213-2.2734-0.2438-4.9015-2.5662l-3.3618-2.9656l2.7707,1.3058
		C337.8987,351.7634,340.1076,352.9196,341.2737,353.6114L341.2737,353.6114z M389.3992,295.842
		c0.5458,1.4453,0.8186,2.6666,0.5977,2.6666c-0.4807,0.013-2.2119-4.6773-1.858-5.0541
		C388.2756,293.3115,388.8537,294.4061,389.3992,295.842L389.3992,295.842z M398.8093,288.4196
		c0.458,2.9138,1.2929,5.5544,1.8191,5.7786c0.5522,0.2308,1.0231,3.5211,1.1043,7.7114c0.0782,3.9791-0.0842,6.0839-0.3506,4.6254
		c-0.2731-1.4682-1.0038-4.9989-1.6275-7.8478c-1.1821-5.4473-2.4587-14.9482-2.0559-15.3736
		C397.8317,283.1706,398.3449,285.5092,398.8093,288.4196L398.8093,288.4196z M333.2799,361.0208
		c2.3842,3.271,0.7664,2.488-1.9914-0.9649c-1.5201-1.9002-1.9132-2.7251-1.0102-2.1178
		C331.0777,358.4739,332.4514,359.8806,333.2799,361.0208L333.2799,361.0208z M331.3567,372.383
		c1.1891,4.2648,2.5079,7.7404,2.9333,7.7307c0.4124-0.013,0.604-0.5847,0.3995-1.2247c-0.2012-0.6529-0.8738-3.3228-1.4878-5.8694
		l-1.1206-4.658l2.2478,2.6636c1.4226,1.689,2.4427,2.4654,2.7773,2.1144c0.2857-0.3054,1.8188,3.2776,3.4073,7.9808
		c2.1178,6.2625,2.5887,8.5722,1.7798,8.689c-0.8023,0.1204-0.7048,0.6952,0.3705,2.1048c0.8282,1.0883,2.4491,3.2613,3.6801,4.9244
		c1.2377,1.6727,2.3842,2.9819,2.6117,2.9786c1.2018-0.0096,0.2046-2.1308-2.472-5.2524c-2.3939-2.7837-2.9137-3.7938-2.186-4.1674
		c0.6559-0.3409,0.003-3.1931-2.0692-8.9684c-1.6857-4.7065-2.8585-8.4811-2.6277-8.4907c0.773-0.0196,4.963,9.306,8.3803,18.6575
		c1.9036,5.2134,4.5994,12.0088,6.0287,15.1986c3.0435,6.8113,3.1961,6.9317-10.4528-8.059l-10.3424-11.3622l-3.3747-7.5877
		c-3.5015-7.8804-4.7488-11.5834-2.9071-8.6208c0.5584,0.8964,1.218,2.4654,1.4941,3.573c0.2761,1.0913,0.7244,1.9651,1.0068,1.9521
		c0.9616-0.0356,1.1921-3.5893,0.289-4.4435c-0.5292-0.5002-0.7341-1.1339-0.458-1.4293c0.2761-0.2924,0.1593-0.8575-0.2661-1.2573
		c-0.4288-0.4028-1.384-2.3127-2.1407-4.2744l-1.3674-3.5437l1.845,1.4389C328.768,364.2981,329.6777,366.3899,331.3567,372.383
		L331.3567,372.383z M375.3281,309.9327c0.2272,0.2272,0.5425,1.4422,0.7112,2.7481l0.3023,2.3387l-0.9453-2.5109
		C374.5062,310.1599,374.4706,309.0849,375.3281,309.9327L375.3281,309.9327z M403.8508,285.3532
		c0.7793,2.6832,1.8643,5.0867,2.3712,5.2979c0.8834,0.3639,1.715,12.6455,0.9223,13.4963
		c-0.2209,0.2275-1.0524-2.7188-1.8191-6.4767c-0.773-3.7519-1.5883-7.0585-1.7928-7.2467
		c-0.4224-0.4028-1.6438-9.4264-1.3188-9.774C402.3207,280.5426,403.0678,282.6737,403.8508,285.3532L403.8508,285.3532z
		 M339.4676,361.4788c-0.013,0.9094-0.3639,0.7078-1.4975-0.8578c-0.8249-1.1465-2.16-2.7737-3.0241-3.7027
		c-0.8575-0.9227-0.1946-0.5392,1.4974,0.8638C338.3015,359.3185,339.4776,360.7544,339.4676,361.4788L339.4676,361.4788z
		 M387.8532,304.6607c0.3932,2.0336,0.8575,4.8366,1.0038,6.1165c0.2531,2.1308,0.1816,2.0463-0.7018-0.8445
		c-1.5267-4.9796-2.0559-7.9256-1.5331-8.4811C386.8949,301.1656,387.457,302.6404,387.8532,304.6607L387.8532,304.6607z
		 M331.6005,364.2981c0.2794,0.5751,0.0519,0.5847-0.6203,0.0163c-0.5525-0.4743-0.7633-0.9064-0.4354-0.9127
		C330.8794,363.3854,331.3667,363.8011,331.6005,364.2981L331.6005,364.2981z M338.0354,362.8396
		c2.15,2.303,3.4429,4.4567,4.1544,6.9254c0.5618,1.9521,0.6559,3.404,0.2012,3.1898c-0.6982-0.3217-7.8897-13.006-7.5747-13.347
		C334.8748,359.546,336.3397,361.0175,338.0354,362.8396L338.0354,362.8396z M320.862,383.56
		c2.2575,2.6084,2.8163,3.5926,1.8124,3.1898c-2.1081-0.8508-4.9244-3.5989-5.5318-5.4147
		C316.3111,378.8698,317.305,379.4705,320.862,383.56L320.862,383.56z M370.1699,326.9923
		c0.4969,1.6371-0.0067,1.4941-0.8675-0.2568c-0.305-0.6237-0.3343-1.1336-0.0552-1.1562
		C369.5203,325.5598,369.9261,326.1834,370.1699,326.9923L370.1699,326.9923z M335.0987,367.2896
		c0.5818,0.5425,1.1921,1.5786,1.3548,2.2834c0.2175,0.9227-0.445,0.5817-2.3549-1.2211c-1.9132-1.7998-2.2901-2.4427-1.3611-2.2838
		C333.4519,366.1887,334.5173,366.7408,335.0987,367.2896L335.0987,367.2896z M342.9465,359.7053
		c0.3702,0.3669,1.5689,3.55,2.6603,7.0681c1.1013,3.5111,1.5819,5.7393,1.0687,4.937c-2.0722-3.2321-2.7611-4.5083-4.1967-7.7826
		C341.1014,360.8096,341.4005,358.1493,342.9465,359.7053L342.9465,359.7053z M368.442,369.9403
		c6.7139,4.7132,7.578,5.5284,16.2151,15.2928c21.8344,24.6669,37.1853,46.5013,56.847,80.8547
		c4.5865,8.0068,10.2157,17.8293,12.5121,21.8281c5.5803,9.7121,20.0449,37.7701,19.6714,38.1696
		c-0.1627,0.1723-3.5181-2.173-7.4027-5.1776c-3.8883-3.0045-7.747-5.8923-8.5267-6.3763
		c-0.7926-0.4936-2.0562-2.6603-2.8585-4.8885c-3.4951-9.7025-13.5971-32.7552-17.9171-40.8854
		c-5.3595-10.0663-11.4467-18.6252-13.6782-19.2133c-0.799-0.2112-1.7802-0.0293-2.196,0.4158
		c-0.4839,0.5132-0.9742,0.3995-1.39-0.328c-2.6929-4.7036-13.1554-20.1423-16.3548-24.1407
		c-3.086-3.8524-4.2489-4.9341-5.743-5.3402c-1.6175-0.4484-2.3809-1.4163-5.6063-7.1363
		c-2.0626-3.6671-5.2883-8.9684-7.2175-11.8625c-4.7328-7.1137-16.2966-21.5227-19.3597-24.1374
		c-1.3511-1.1532-6.1651-6.2236-10.7708-11.3396l-8.3284-9.2511l7.5032,4.2682
		C357.9987,363.0574,364.5181,367.1859,368.442,369.9403L368.442,369.9403z M377.5074,332.6638
		c1.5756,1.9455,2.3553,3.5923,2.1992,4.6839c-0.1234,0.9257,0.5847,3.8005,1.5753,6.3633c2.787,7.2175,0.1071,2.3353-3.3588-6.1132
		c-1.705-4.1514-3.0435-7.6465-2.9786-7.7503C375.0128,329.7468,376.1627,331.007,377.5074,332.6638L377.5074,332.6638z
		 M374.5096,334.0898c0.4936,1.6401-0.0033,1.4941-0.8641-0.2535c-0.3087-0.63-0.3346-1.1402-0.0615-1.1595
		C373.8566,332.6605,374.2657,333.2808,374.5096,334.0898L374.5096,334.0898z M380.4571,331.2898
		c2.0852,3.8524,2.2738,5.8371,0.2661,2.8033c-1.6564-2.498-3.1376-6.1554-2.5076-6.1684
		C378.4494,327.9117,379.4336,329.3958,380.4571,331.2898L380.4571,331.2898z M351.2945,369.5731
		c1.0524,2.6766,5.2427,15.6047,7.2823,22.4876c0.1008,0.3509,0.4906,0.328,0.8415-0.0456
		c0.3605-0.3769-0.4321-4.1188-1.7379-8.2536c-1.3155-4.1448-2.0592-7.6625-1.6534-7.7763
		c0.4061-0.1104,0.1627-1.1825-0.5325-2.3583l-1.2733-2.1567l1.7376,1.5526c2.0759,1.8384,10.0697,21.7336,9.0173,22.4254
		c-0.3802,0.2438,0.4806,3.1931,1.8873,6.4934c1.403,3.2906,2.3809,6.0547,2.1404,6.0773c-0.2435,0.0196-1.085-1.5134-1.8873-3.43
		c-1.6272-3.9109-2.1534-4.6254-2.8485-3.8946c-0.7307,0.7763,6.0547,14.4319,8.822,17.7774
		c0.77,0.9193,3.1865,5.7104,5.3335,10.5566c2.1504,4.8433,5.0023,10.8557,6.3018,13.2561
		c1.3188,2.4361,2.2412,4.3982,2.0789,4.3916c-0.3153,0.0033-16.1176-17.4688-21.5001-23.7769
		c-4.2129-4.9374-9.751-15.0815-12.0963-22.166c-0.6529-1.9717-0.8705-3.0142-0.4969-2.3516
		c1.8547,3.2513,2.7122,4.2552,3.1865,3.7483c0.4677-0.4936-3.9921-8.9488-5.4732-10.3584
		c-0.3735-0.3639-1.9684-5.2557-3.544-10.9239c-1.9392-6.9773-2.4102-9.631-1.4582-8.2895c0.8608,1.2117,1.6045,1.7572,1.9292,1.413
		c0.286-0.3054,1.7086,3.2906,3.1509,7.9356c1.4326,4.6417,2.8908,8.4908,3.2158,8.4971c0.3572,0.0067,0.5781-0.3539,0.5555-0.9094
		c-0.0552-1.2084-7.8089-25.4369-8.3903-26.2066c-0.2401-0.3183,0.5751,0.1883,1.8028,1.1239
		C349.1993,365.568,350.3718,367.2474,351.2945,369.5731L351.2945,369.5731z M404.5067,308.5327
		c0.4613,3.3488,0.494,6.3989,0.0782,6.8406c-0.4288,0.4547-0.8575-2.0722-0.9972-5.8564
		c-0.1397-3.6834-0.1723-6.7335-0.0782-6.8343C403.6103,302.5785,404.052,305.1869,404.5067,308.5327L404.5067,308.5327z
		 M400.9597,313.5739c0.7893,3.1053,1.0394,6.7239,0.468,6.7402c-0.4613,0.0193-1.6471-8.3643-1.2443-8.7864
		C400.2971,311.4072,400.638,312.3203,400.9597,313.5739L400.9597,313.5739z M383.3056,341.0312
		c1.1662,3.2709,0.6596,3.4529-0.601,0.2112c-0.5522-1.4326-0.8475-2.628-0.6333-2.6247
		C382.2858,338.6273,382.8413,339.7156,383.3056,341.0312L383.3056,341.0312z M385.0728,346.7122
		c0.448,1.3318,0.6819,2.462,0.5358,2.618c-0.1397,0.1464-0.5911-0.7567-1.0394-2.0852c-0.445-1.3351-0.6822-2.4687-0.5392-2.6184
		C384.1731,344.4774,384.6245,345.3771,385.0728,346.7122L385.0728,346.7122z M406.5174,321.2982
		c0.1171,0.1138-0.0063,1.4552-0.2761,3.0079l-0.4873,2.7933l0.0293-2.774C405.8126,321.6458,406.0141,320.8273,406.5174,321.2982
		L406.5174,321.2982z M390.5687,344.9258c1.8806,6.1944,1.5527,7.4483-0.5847,2.2056c-0.9875-2.4524-1.3481-5.1356-0.773-5.8438
		C389.3117,341.1675,389.9354,342.8339,390.5687,344.9258L390.5687,344.9258z M368.9615,392.6355
		c2.4231,6.4674,3.9758,11.0635,3.4562,10.2679c-1.5819-2.4331-1.9262-0.5069-0.4743,2.634
		c1.5234,3.2743,11.5245,17.5113,12.2912,17.4887c1.1595-0.0392,0.0096-2.2445-3.9009-7.458
		c-6.1232-8.1824-7.4061-10.4725-6.1814-11.0668c0.7827-0.3799,0.2142-2.6051-2.2382-8.7279
		c-1.8221-4.5539-3.102-8.218-2.8778-8.2246c0.6266-0.0193,10.7645,12.9475,10.9594,14.0162
		c0.1656,0.9227,4.7717,9.5042,7.6429,14.2304c2.7514,4.5283,7.929,9.8228,9.0854,9.277
		c1.3904-0.6563,6.9544,6.5775,15.1075,19.6291c3.3521,5.3758,6.6913,10.2057,7.4027,10.7026
		c0.7211,0.5166,1.9781,0.6855,2.8519,0.3835c1.6924-0.5881,1.7509-0.5262,6.5353,6.3144c3.6382,5.2134,2.6021,5.7397-2.3027,1.1628
		c-2.1863-2.0399-3.1542-2.6084-3.2939-1.9295c-0.143,0.6629,1.6208,2.5306,5.6715,5.9964
		c5.4343,4.661,6.0743,5.4343,8.4844,10.2546c2.5725,5.1453,2.5758,5.1972,0.471,3.7549c-1.1662-0.799-4.3786-3.2806-7.1007-5.4962
		c-2.7285-2.2086-5.2005-3.7905-5.4732-3.5015c-0.5651,0.5977,10.3002,9.8195,13.5385,11.4923
		c1.3026,0.6692,2.2834,1.7702,2.9493,3.3002c0.5392,1.2343,0.5977,1.9847,0.1267,1.6242
		c-0.4806-0.3705-3.6445-2.6766-7.0422-5.1389c-5.9605-4.3071-6.3111-4.674-10.2643-10.7516
		c-4.5442-6.99-4.8722-7.3898-5.5318-6.6913c-0.2501,0.2664,0.9357,2.6799,2.6669,5.418c1.7313,2.7448,2.5562,4.4631,1.8643,3.872
		c-0.6626-0.5718-1.4974-0.8023-1.7928-0.4906c-0.3768,0.3961,0.5359,1.4,2.8322,3.115c1.871,1.4066,3.7616,3.3002,4.2519,4.2652
		c0.7211,1.4259,0.0911,1.1172-3.6119-1.7509c-2.4913-1.9328-4.817-3.3911-5.2264-3.271c-1.0102,0.2891,1.231,2.3453,7.2208,6.6231
		c2.8196,2.014,5.8241,4.6873,7.0388,6.2625l2.1211,2.7481l-2.5239-1.5723c-1.4033-0.8801-5.0737-3.6704-8.2343-6.2625
		c-6.2525-5.1323-10.5436-10.7352-17.6637-23.072c-3.872-6.7172-3.258-7.1819,2.4491-1.858
		c1.9814,1.8417,2.8911,2.3453,3.0338,1.6794c0.143-0.6725-1.5104-2.3875-5.5088-5.7007c-4.3333-3.5859-6.045-5.3954-7.0844-7.4742
		l-1.3774-2.7478l4.9407,4.5961c2.9363,2.7381,5.1386,4.3949,5.4376,4.0766c0.305-0.325-2.1081-3.0305-6.2206-6.9644
		c-4.4305-4.2419-7.1263-7.2727-7.906-8.8999c-1.098-2.303-0.7018-2.0237,5.7004,4.0603c7.9389,7.5291,8.3221,7.8315,7.4809,5.889
		c-0.8804-2.0399-14.091-14.4709-15.6726-14.7503c-1.1209-0.1982-1.254-0.0619-0.9812,1.0394
		c0.4969,1.9944,11.2747,22.5069,15.7571,29.9842c2.2155,3.7064,4.0702,6.9384,4.0895,7.1463
		c0.0196,0.2142-1.5297-1.244-3.3977-3.1995c-1.8969-1.9814-6.3207-6.4933-9.8678-10.0663
		c-9.2511-9.3193-12.6844-15.4744-25.4207-45.5789c-3.102-7.3442-5.5318-13.8246-5.3954-14.3831
		c0.1397-0.5555-1.2896-5.1712-3.1931-10.2776c-3.0368-8.1594-3.248-9.1762-1.7735-8.4874
		C364.2224,380.7667,365.4437,383.2776,368.9615,392.6355L368.9615,392.6355z M498.1985,300.0839l2.3194,0.7311l-2.485,8.6434
		c-1.3514,4.7328-2.0822,8.6274-1.6012,8.6175c0.4839-0.0193,2.1371-4.4597,3.6834-9.92
		c2.5109-8.8643,4.3719-12.9375,5.4084-11.8006c0.1916,0.2079-0.6659,3.537-1.9232,7.4676c-1.257,3.9239-1.8806,6.8862-1.4,6.649
		c0.4743-0.2468,2.027-4.1025,3.4822-8.6501l2.6214-8.2083l4.6709-3.4137c2.5825-1.8776,5.8434-3.9305,7.2823-4.5705
		c2.4623-1.088,4.3137-0.5132,3.9598,1.2247c-0.2209,1.0946,1.559,2.774,2.6373,2.4913c0.4551-0.1234,3.255-1.6468,6.2659-3.4236
		c6.6201-3.8846,29.614-14.2986,30.5822-13.8472c0.3735,0.1627,1.0524-0.0519,1.4519-0.4807
		c0.9482-1.0035,6.8083-2.9037,7.3638-2.3809c0.1979,0.1916-0.169,1.2506-0.8186,2.3386c-1.7964,3.0175-0.6822,4.1577,3.6086,3.6997
		c2.0043-0.2142,4.1414-0.8282,4.6417-1.3414c1.3318-1.3511,13.3436-6.2429,13.3018-5.4114
		c-0.0197,0.3669-2.0044,4.3363-4.3919,8.7994c-4.4238,8.2602-5.262,10.3195-4.187,10.2935
		c0.3413-0.013,2.2545-3.1931,4.2325-7.0488c1.9781-3.8491,4.4598-8.6205,5.4896-10.5566l1.8873-3.5404l4.1218-0.9227
		c2.2382-0.5033,4.655-1.1888,5.272-1.5004c0.6074-0.3054,1.6241-0.1301,2.1537,0.3735c1.0231,0.9646-0.2861,3.6378-3.4629,7.0615
		c-0.7437,0.799-1.1043,1.6697-0.8119,1.9458c0.325,0.3054,2.1859-1.3547,4.7587-4.2455
		c5.6322-6.3244,11.466-10.5437,21.2496-15.361c9.7091-4.7781,16.134-9.8631,24.9789-19.7668l6.178-6.9171l0.2308,4.968
		c0.315,6.8263-1.0654,13.8-4.1481,20.917c-1.4552,3.3458-2.7804,6.2169-2.9723,6.4248c-0.1979,0.2049,0.8675-3.4948,2.3746-8.2862
		c2.9493-9.3595,4.5086-17.2432,3.2776-16.561c-0.445,0.2455-1.4585,3.5307-2.2804,7.3768
		c-1.6727,7.8395-8.1042,25.3052-11.0472,29.9858c-1.0947,1.7443-4.0473,5.0089-6.6005,7.3153l-4.6287,4.1607l4.054-7.2108
		c6.3373-11.2681,13.6327-29.7553,12.2556-31.0515c-0.7537-0.7115-0.8867-0.4367-2.6117,5.3548
		c-2.6377,8.8416-13.2136,30.8809-14.8378,30.9294c-0.2308,0.0067-0.1886-2.4817,0.0941-5.5284
		c0.2761-3.0434,0.4061-5.6292,0.2924-5.7396c-0.8641-0.8089-1.5916,2.0173-2.0756,8.0783c-0.5328,6.7109-1.2117,8.374-3.9402,9.618
		c-1.0524,0.481-1.2051-0.7797-0.8119-6.9348c0.2598-4.161,0.7826-8.1694,1.1658-8.975c1.3707-2.8552-0.2761-2.2608-2.8422,1.0331
		c-2.3871,3.0598-2.5562,3.1669-2.3646,1.4778c0.1104-0.9938-0.1331-1.8091-0.5425-1.8157c-0.4028,0-0.8997,1.4129-1.0717,3.0534
		c-0.2957,2.8259-0.903,3.7613-8.1661,12.5544c-4.3364,5.2427-8.0394,9.5009-8.2669,9.5075
		c-0.2242,0.0096-0.1397-1.7865,0.1949-3.9758c0.3283-2.1959,0.3672-4.2196,0.0715-4.499
		c-0.8348-0.7827-1.1172,0.0522-1.6305,4.8821c-0.8478,7.9223-1.7086,9.5984-5.8663,11.4141l-2.1144,0.9227l1.9195-8.5752
		c1.0491-4.7198,1.9229-9.8259,1.9329-11.3593c0.0193-2.4231,0.4481-3.2417,3.248-6.2136c1.8028-1.9102,2.9949-3.6478,2.6992-3.9272
		c-0.8152-0.7634-13.2429,12.7881-18.8395,20.5451c-2.6702,3.6931-7.591,11.5471-10.8782,17.3713l-6.0125,10.6281l-5.863,4.0992
		c-3.2387,2.2578-5.9575,4.1903-6.0679,4.3041c-0.1104,0.1201-0.6722-0.2338-1.257-0.786
		c-0.5878-0.5525-1.2896-0.7603-1.5623-0.4647c-0.2698,0.2761-0.1364,0.8771,0.2891,1.2733
		c0.5295,0.5036,0.2986,1.2863-0.7015,2.3486c-1.3514,1.4323-1.6601,1.4389-3.0923,0.0908c-1.8094-1.702-1.8094-1.702,6.844-16.907
		c2.7803-4.8981,4.8951-9.1274,4.6613-9.3482c-0.6888-0.6496-1.2214,0.159-7.3704,11.2029
		c-3.1832,5.7204-6.0384,10.6833-6.2982,10.9597c-0.2697,0.2891-0.9713,0.2338-1.6275-0.1334
		c-0.9972-0.5488-1.0424-0.4351-0.3376,0.8349c0.7893,1.4033,0.4417,3.6541-0.5588,3.6867
		c-0.2858,0.0033-1.4196-1.5301-2.5273-3.4399c-1.1109-1.9036-2.1989-3.4429-2.4264-3.4333
		c-1.0524,0.0293-0.4644,1.871,1.6241,5.0801c1.6794,2.5825,2.1341,3.9921,1.699,5.2687c-0.338,0.9908-0.8286,1.7672-1.1306,1.7898
		c-0.2953,0.0196-2.1374-2.8422-4.0636-6.3244c-3.9302-7.1104-4.018-7.2271-4.7065-6.4997
		c-0.2502,0.2631,1.3414,3.6349,3.5244,7.4839c2.6766,4.7099,3.849,7.5002,3.5826,8.5363c-0.2045,0.8089-0.6366,1.543-0.8997,1.5463
		c-0.6722,0.0163-7.7404-14.0258-7.8185-15.5329c-0.0779-1.3188,5.8826-14.0551,10.1052-21.6072
		c4.2908-7.6822,8.2343-12.9701,12.6355-16.9622c3.1476-2.8489,3.6511-3.5407,2.6084-3.5407
		c-2.1504-0.0067-10.5503,9.3938-14.734,16.4782c-3.6508,6.1814-11.5538,22.0878-13.0675,26.2815
		c-1.114,3.089-9.1048,20.7916-14.1329,31.2997l-4.1251,8.6404l-5.9576,5.418c-3.2999,3.0012-7.7826,7.0226-10.053,9.0169
		l-4.1058,3.6089l6.3763-13.9966c3.5145-7.7177,6.7432-14.3249,7.1982-14.7243c0.9387-0.8186,2.2216-5.889,1.6401-6.4637
		c-0.2372-0.2242-0.4321-3.8235-0.4384-8.0427c-0.0163-4.2226-0.3735-7.4547-0.8089-7.2274
		c-0.4384,0.2242-0.7663,3.7356-0.7504,7.8707c0.0229,4.1284-0.1264,8.364-0.3343,9.5009c-0.2112,1.1239-4.0636,10.063-8.53,19.7881
		c-6.685,14.5587-8.9099,18.739-12.418,23.2899c-2.3323,3.0208-6.1684,8.52-8.4455,12.093
		c-2.2704,3.5763-4.3004,6.5516-4.4727,6.5582c-0.458,0.0063,3.5989-11.4434,4.343-12.2523
		c0.3117-0.3346,0.5911-1.1402,0.6559-1.8806c0.0652-0.7181,1.3903-4.8043,2.956-9.147c1.569-4.343,4.9114-14.419,7.4776-22.5328
		c6.9999-22.1756,11.2192-31.9985,19.7262-45.9788c4.2652-7.0096,4.8789-8.3381,3.8394-8.3121
		c-0.7697,0.0259-9.6958,14.8248-12.7233,21.0973c-3.862,7.9938-8.0327,18.7031-10.55,27.0545
		c-1.1761,3.9076-2.326,7.1133-2.5532,7.12c-0.2242,0.0063-0.5328-6.1717-0.6855-13.8342
		c-0.1623-7.6658-0.5977-13.9966-0.9809-14.1752c-0.8382-0.3898-0.4677,30.3836,0.3769,31.1926
		c0.5295,0.5002-2.761,11.4141-3.4399,11.4141c-0.1171,0.0033,0.1104-4.7195,0.4906-10.5759
		c0.7663-11.7068,0.7015-17.6444-0.1886-17.6184c-0.3409,0.0096-0.7437,3.8587-0.8997,8.6208
		c-0.159,4.7651-0.5392,11.9503-0.8445,16.1014c-0.302,4.1284-0.4873,8.0134-0.4191,8.6304
		c0.0845,0.6433-0.2661,2.0496-0.8023,3.2516c-0.6789,1.5297-1.0005-2.2445-1.1498-13.62
		c-0.1138-8.6271-0.5618-15.3606-0.9875-14.9059c-0.4254,0.4484-0.6789,8.6241-0.5685,18.1609l0.1982,17.329l-4.187,11.947
		c-2.2931,6.5549-4.3689,12.4472-4.5898,13.0612c-0.2272,0.617-0.7078-2.1178-1.0847-6.0839
		c-0.3769-3.9598-1.3058-12.2849-2.0725-18.4889c-0.7634-6.2073-1.5004-13.805-1.6305-16.8843
		c-0.2372-5.3921-0.1886-5.5707,1.3544-4.9503c2.472,0.9942,3.57-0.786,3.9791-6.4152c0.8641-12.0185,4.0829-35.1457,5.6811-40.8624
		c1.5949-5.7137,1.8517-6.175,3.2613-6.0061c2.0366,0.2405,3.6056-1.9651,7.0907-10.0045
		c2.9363-6.7628,5.717-11.2162,9.9363-15.9034C495.7331,299.5154,495.9995,299.3921,498.1985,300.0839L498.1985,300.0839z
		 M411.8575,400.9479c7.8022,8.991,34.5547,49.8245,42.0545,64.2042c4.6224,8.845,2.6473,6.1295-4.3656-6.0061
		c-8.1528-14.12-29.5847-46.6996-36.1819-55.0053C407.6802,396.9751,406.8064,395.1271,411.8575,400.9479L411.8575,400.9479z
		 M530.7651,272.9775c1.1176-0.6203,0.1916,0.6822-2.774,3.8979c-2.4717,2.6829-5.0152,4.9696-5.7167,5.1419
		C520.7217,282.3976,528.2834,274.3483,530.7651,272.9775L530.7651,272.9775z M544.4111,260.066
		c3.2188-2.5791,7.0322-5.2231,8.4581-5.863l2.5988-1.1595l1.1205,3.1702c1.1825,3.3262,2.943,4.3267,4.5702,2.5984
		c0.8771-0.9257,9.3419-4.0277,12.6422-4.6317c2.9396-0.5392,3.6641-0.0067,4.1188,3.0175l0.3443,2.2901l-6.9933,4.2356
		c-8.0364,4.8625-12.8438,7.4546-12.8567,6.9381c0-0.2272,2.5109-2.1989,5.548-4.346c3.0402-2.1504,5.4766-4.2682,5.3628-4.6806
		c-0.2534-0.9357-0.7407-0.64-8.7086,5.1872c-3.7094,2.7188-6.8343,5.3176-6.9218,5.7626c-0.0878,0.4547-0.7537,0.9842-1.5626,1.231
		c-1.0491,0.3183-0.4869-0.5621,2.1959-3.4463c1.9881-2.1407,3.3881-4.0735,3.1249-4.3267
		c-0.5654-0.5328-2.9593,1.3252-9.8748,7.6396c-2.485,2.2675-6.0253,4.8303-7.8218,5.6618l-3.2869,1.5171l4.4661-4.1092
		c6.7435-6.2107,4.486-6.1065-2.5335,0.1104l-5.9216,5.2524l6.0809-6.6068c3.3555-3.6511,6.1684-6.2755,6.2788-5.8697
		c0.2272,0.7893,3.5956-1.5623,6.2496-4.3686c2.316-2.4427,0.5099-2.6377-1.9166-0.2145c-1.0361,1.0298-1.6208,1.3803-1.2766,0.7537
		c0.3639-0.6562,0.3995-1.3773,0.0811-1.6761c-0.3735-0.3576-3.9498,3.1928-10.8264,10.7415
		c-5.6581,6.2077-10.3584,10.9987-10.4525,10.6607c-0.0975-0.3409,2.8259-3.8005,6.5319-7.7274
		c3.9532-4.2,6.6102-7.4547,6.4738-7.9323c-0.1494-0.5325-2.631,1.7249-7.0355,6.3989c-4.4016,4.6743-6.8862,6.9351-7.0389,6.4022
		c-0.1234-0.4514,1.5267-2.6796,3.6768-4.96c4.8044-5.0964,8.1046-9.6243,7.1593-9.8259
		C535.4457,267.67,537.6838,265.4644,544.4111,260.066L544.4111,260.066z M580.0407,260.7612
		c2.3613-1.0784,5.8597-2.7481,7.7663-3.7097c6.1165-3.0564,16.4623-7.3409,22.0263-9.1127
		c4.5312-1.4456,5.5317-1.5038,6.1487-0.3785c1.1566,2.1148,8.6208,1.2619,17.8752-2.0513c7.2468-2.5888,7.6559-2.652,5.249-0.7664
		c-3.5989,2.8243-4.8043,3.4948-5.3401,2.9883c-0.2631-0.2468-1.4778,0.312-2.7218,1.2473
		c-3.3655,2.5419-6.7209,4.3024-8.0234,4.1983c-0.6136-0.0486-3.6282,1.9651-6.6424,4.4404
		c-3.5244,2.8908-5.8826,4.3786-6.5323,4.1088c-1.1694-0.471-0.9323-0.7178,4.6677-4.8625c2.3842-1.7669,4.2681-3.5081,4.161-3.8654
		c-0.2275-0.7537-1.2699-0.1301-6.8862,4.0992c-2.8389,2.1374-5.7593,3.6771-8.1205,4.2748
		c-4.4338,1.1239-4.3137,0.9549,3.2676-4.3333c6.6068-4.6058,7.5458-5.4277,6.9025-6.0287
		c-0.2598-0.2468-4.9404,2.7125-10.3391,6.5486c-5.3984,3.8328-10.4236,7.146-11.1088,7.3216
		c-1.0071,0.2531-1.0071,0.159,0.003-0.494c3.5926-2.3257,6.6849-5.2327,6.1295-5.7493c-0.3346-0.3246-0.906-0.2079-1.3577,0.2664
		c-0.4484,0.4806-0.8575,0.5099-0.9679,0.0778c-0.3313-1.2829-1.4489-0.5977-7.4613,4.5672
		c-5.5088,4.7292-11.4304,8.6141-12.7363,8.3477c-0.3735-0.0778,2.5143-2.644,6.4022-5.7004
		c8.059-6.344,9.9689-8.1465,8.5526-8.0849c-0.799,0.0389-12.1126,8.5396-13.9154,10.4495
		c-0.3928,0.4158-0.5977,0.2079-0.7111-0.7341c-0.1723-1.413-2.2545-2.462-3.1216-1.5689
		c-0.2957,0.3053-0.4417-0.0163-0.3087-0.6885C573.1901,264.0873,574.0932,263.48,580.0407,260.7612L580.0407,260.7612z
		 M385.4071,469.5989c3.3751,1.4649,3.6315,1.7346,11.3496,11.947c4.3264,5.7267,8.1658,10.7356,8.51,11.0765
		c0.3346,0.3476-0.786,0.2435-2.5399-0.2339c-2.9493-0.8089-3.4303-1.1987-7.6073-6.2399
		c-7.3605-8.8872-13.8016-17.3683-13.464-17.7255C381.8245,468.2445,383.4843,468.764,385.4071,469.5989L385.4071,469.5989z
		 M399.1602,475.1632c7.1234,2.8745,11.294,5.8631,11.619,8.3088c0.0875,0.6659,2.303,3.9921,4.8818,7.3183
		c2.5761,3.3328,4.7395,6.3081,4.7621,6.5452c0.0193,0.2435-0.8641,0.1234-1.9944-0.2794
		c-1.6371-0.5685-3.3036-2.2349-8.4844-8.4422c-7.5295-9.0299-7.9971-9.5109-7.9582-8.1498
		c0.013,0.5069,2.5206,3.9695,5.5966,7.7307c3.0794,3.7549,5.574,6.9644,5.5807,7.1626c0.003,0.1916-1.0231-0.0263-2.2901-0.4973
		c-1.4974-0.5651-3.2969-2.0299-5.2101-4.2581c-2.9137-3.3977-13.9221-17.992-13.7238-18.2032
		C391.9979,472.3437,395.2396,473.5813,399.1602,475.1632L399.1602,475.1632z M536.5762,340.1055
		c2.7448,5.4958,3.3002,7.2434,2.5562,8.0294c-0.4999,0.5329-1.075,0.8934-1.2147,0.7634
		c-0.5165-0.484-5.4636-13.2525-5.6096-14.4772C531.9865,331.7315,533.2078,333.3653,536.5762,340.1055L536.5762,340.1055z
		 M532.7661,340.635c0.9516,2.2867,2.1763,5.4017,2.7415,6.9966l1.0134,2.8615l-7.0844,5.6455
		c-3.9239,3.1279-8.231,6.8243-9.6472,8.2635c-2.3809,2.4328-2.1082,1.6109,4.0602-12.223
		c3.6445-8.1891,6.7335-15.0167,6.8992-15.2505C530.9144,336.6948,531.8141,338.3482,532.7661,340.635L532.7661,340.635z
		 M403.425,497.9755c6.6816,7.3798,14.091,14.3049,14.6595,13.7008c0.2924-0.3087-1.5234-2.4783-4.3593-5.2134
		c-2.6796-2.5791-6.3859-6.4085-8.2536-8.533l-3.3914-3.8394l2.7025,0.6885c2.605,0.6659,3.0731,1.1013,12.2882,11.4308
		c5.2717,5.8987,9.6017,10.839,9.6147,10.9691c0.0196,0.1267-3.9369-1.088-8.7508-2.6829l-8.7831-2.9171l-7.76-8.5167
		c-4.2908-4.7069-8.4485-9.4364-9.293-10.5633l-1.5334-2.0466l4.2229,1.3221C398.7737,493.0155,399.248,493.3628,403.425,497.9755
		L403.425,497.9755z M550.7288,336.9027c0.76,0.7274,0.7081,1.3741-0.1949,2.3323c-1.3514,1.4323-1.4293,1.4226-2.2152-0.2049
		C547.526,337.403,549.4489,335.7039,550.7288,336.9027L550.7288,336.9027z M547.224,340.6187
		c0.2791,0.2661-0.0099,1.0524-0.6237,1.6694c-1.0754,1.1013-1.1176,1.072-0.627-0.3376c0.2858-0.8315,0.5618-1.5886,0.617-1.6731
		C546.6489,340.1833,546.9023,340.323,547.224,340.6187L547.224,340.6187z M594.1933,292.7008
		c-0.4061,2.0659-1.4359,6.9644-2.2867,10.8816l-1.543,7.1137l-7.2794,5.0768c-9.111,6.344-9.6113,6.6071-8.7768,4.5605
		c2.0077-4.9015,14.8511-24.8066,19.2263-29.8055C594.8881,288.9881,594.9078,289.0629,594.1933,292.7008L594.1933,292.7008z
		 M598.4485,285.6293c0.2727,0.2631-1.9914,12.0607-3.4789,18.0831c-2.131,8.6338-2.6606,5.6192-0.6659-3.8394
		c1.0847-5.1908,1.7572-9.8195,1.4908-10.365C595.3917,288.6635,597.8474,285.0675,598.4485,285.6293L598.4485,285.6293z
		 M421.7679,493.1419c6.8243,6.4804,7.3539,7.1074,5.5155,6.6494c-1.1369-0.2827-2.8326-1.2506-3.8557-2.1893
		c-1.9325-1.7769-9.6113-11.1836-9.3515-11.46C414.1573,486.0512,417.6428,489.2247,421.7679,493.1419L421.7679,493.1419z
		 M416.3369,499.0668c1.9295,1.7832,16.8029,18.4596,18.3329,20.5385c0.3702,0.5099-0.5781,0.4644-2.1567-0.0941
		c-1.5819-0.5621-3.0208-1.374-3.2839-1.8387c-0.2535-0.461-3.6771-4.3427-7.6399-8.6531
		c-3.9565-4.3104-7.9386-8.8124-8.8905-10.0371c-1.5786-2.0432-1.5849-2.1989-0.0845-2.0366
		C413.4947,497.0465,415.213,498.0241,416.3369,499.0668L416.3369,499.0668z M625.9932,275.4981
		c0.1041,0.0974-0.0067,3.3977-0.2501,7.2827c-0.3669,6.0676-0.6852,7.2434-2.1341,8.0134
		c-1.6468,0.8771-1.689,0.7178-1.2407-4.8725c0.4188-5.2264,1.114-7.6169,2.8519-9.8452
		C625.5385,275.6671,625.8925,275.4073,625.9932,275.4981L625.9932,275.4981z M620.965,284.2979
		c-0.0975,1.6109-0.2728,4.0473-0.4028,5.6356l-0.2305,2.787l-7.0748,4.0603c-3.9043,2.2379-7.3605,4.0636-7.7015,4.0732
		c-0.4872,0.0163,8.4874-11.2485,14.1426-17.7515l1.4389-1.6534L620.965,284.2979L620.965,284.2979z M438.0415,487.9514
		c5.275,3.6575,8.4552,7.1037,5.4081,5.8564c-1.8124-0.7371-12.2812-9.4457-11.4337-9.5075
		C432.3927,484.2743,435.1278,485.9311,438.0415,487.9514L438.0415,487.9514z M426.364,503.9553
		c7.9648,8.8872,16.1502,17.1767,16.7902,17.011c1.0005-0.2697-0.0619-1.569-7.6951-9.4264
		c-4.0214-4.1414-7.6073-8.1628-8.0197-8.9943c-0.6496-1.3155-0.3183-1.3059,2.6895,0.0715
		c3.9206,1.8028,6.6294,4.1447,5.8012,5.0215c-0.747,0.7893,21.1784,20.3632,22.1919,19.8174
		c0.3769-0.2046,0.8997,0.0911,1.1791,0.6562c0.289,0.6074-1.7443,0.302-5.0641-0.7537
		c-9.7966-3.1116-18.0665-6.4897-17.9075-7.3116c0.0812-0.4255-2.6603-3.9465-6.1554-7.8931
		c-11.596-13.1261-11.6772-13.2365-9.6925-13.019C421.8264,499.281,423.1419,500.3597,426.364,503.9553L426.364,503.9553z
		 M440.1234,493.3468c0.7863,0.7437,2.4394,1.8806,3.5863,2.4717c1.7313,0.903,2.475,1.9944,4.0925,6.032
		c1.8517,4.632,2.0044,6.6328,0.3898,5.116c-1.1662-1.1013-2.2478-4.7099-1.4226-4.7488c0.4514-0.0163-0.6822-1.3158-2.5143-2.8815
		c-4.7781-4.0796-6.675-6.2136-6.0902-6.834C438.441,492.2099,439.3278,492.5964,440.1234,493.3468L440.1234,493.3468z
		 M440.6596,499.1609c0.7048,0.8934,0.0908,0.4906-1.3967-0.9127c-1.4845-1.4-2.0399-2.0952-1.2573-1.5883
		C438.7627,497.1599,439.9677,498.2968,440.6596,499.1609L440.6596,499.1609z M449.2218,518.2672
		c1.1402,1.2892,0.0389,0.4351-2.4557-1.9166c-2.4946-2.3519-3.417-3.3977-2.0529-2.3356
		C446.0387,515.0414,448.1109,516.9969,449.2218,518.2672L449.2218,518.2672z"/>
	<path class="st0" d="M265.4831,200.3085c3.0564,6.3307,3.0142,6.2675,3.6738,5.5723c0.2498-0.2664-0.7733-3.0128-2.2708-6.1069
		c-2.9849-6.1894-3.0694-6.3161-3.7027-5.6422C262.9299,194.3999,263.9564,197.143,265.4831,200.3085L265.4831,200.3085z"/>
	<path class="st0" d="M275.3998,213.6166c1.3122,2.9669,2.6473,5.6518,2.9397,5.9263c1.0654,1.0085,1.3088-0.3266,0.3961-2.2349
		c-0.5229-1.1043-1.6953-3.6265-2.6473-5.7021c-0.9516-2.0692-2.017-3.6495-2.4035-3.5633
		C273.3079,208.1254,274.0843,210.6523,275.3998,213.6166L275.3998,213.6166z"/>
	<path class="st0" d="M284.433,219.135c1.2343,3.4838,1.9977,4.5865,2.6732,3.867c0.6207-0.6593-1.7832-6.1927-2.9071-6.7026
		C283.6763,216.0673,283.7771,217.2787,284.433,219.135L284.433,219.135z"/>
	<path class="st0" d="M289.7506,285.7238c7.9549,6.99,11.0276,8.8936,8.8609,5.4958c-1.377-2.1567-14.737-12.6907-16.0528-12.6485
		C281.9903,278.5841,284.758,281.3452,289.7506,285.7238L289.7506,285.7238z"/>
	<path class="st0" d="M284.1699,277.1808c0.3183,0.302,0.7308,0.2857,1.0331-0.0326c0.302-0.3183,0.2857-0.7308-0.0293-1.0328
		c-0.3183-0.2957-0.7307-0.2857-1.0331,0.0326C283.8386,276.4664,283.8516,276.8821,284.1699,277.1808L284.1699,277.1808z"/>
	<path class="st0" d="M307.3264,292.1842c4.3204,4.3463,8.0493,7.9323,8.2572,7.9389c1.3674,0.0519-0.3769-2.1504-6.8117-8.6208
		c-4.4271-4.4501-7.6625-7.286-8.2862-7.2697C299.8036,284.2556,302.1293,286.9581,307.3264,292.1842L307.3264,292.1842z"/>
	<path class="st0" d="M311.8317,292.6163c7.1071,7.3509,8.8253,8.7898,8.7834,7.3835c-0.0326-1.0331-15.4681-16.3582-15.952-15.8416
		C304.3608,284.4795,307.2582,287.8968,311.8317,292.6163L311.8317,292.6163z"/>
	<path class="st0" d="M314.1022,290.7357c0.2957,0.6237,2.2415,2.7318,4.3104,4.6839c4.8918,4.6091,4.9114,2.8778,0.0229-2.1537
		C314.8233,289.5469,313.0338,288.5042,314.1022,290.7357L314.1022,290.7357z"/>
	<path class="st0" d="M321.7324,295.8906c1.5753,1.8384,3.3488,4.0929,3.9009,4.9503c1.098,1.7116,2.313,1.1402,1.4392-0.6725
		c-1.0524-2.1793-7.2208-8.7213-7.7277-8.1821C319.0721,292.272,320.1572,294.0489,321.7324,295.8906L321.7324,295.8906z"/>
	<path class="st0" d="M331.7921,310.3711c5.0119,5.3206,6.4055,6.4282,6.36,5.0608c-0.0356-1.1336-10.6867-11.8495-11.2225-11.2844
		C326.6502,304.4465,328.7843,307.1783,331.7921,310.3711L331.7921,310.3711z"/>
	<path class="st0" d="M326.5301,309.468c0.302,0.6303,1.9747,2.4787,3.7775,4.1773c4.1837,3.9465,4.2096,2.2412,0.0293-2.1567
		C327.2123,308.2078,325.4744,307.2887,326.5301,309.468L326.5301,309.468z"/>
	<path class="st0" d="M340.2699,320.5805c0.9227,1.2277,2.9074,3.9887,4.4371,6.1877c1.5397,2.2023,2.9656,3.9661,3.1931,3.9565
		c1.1465-0.0326,0.2372-2.0562-2.618-5.8371c-1.7898-2.3583-3.7972-5.0608-4.4405-5.9768c-0.6918-0.9679-1.4096-1.4356-1.7116-1.111
		C338.8343,318.1118,339.3379,319.3332,340.2699,320.5805L340.2699,320.5805z"/>
	<path class="st0" d="M349.5013,334.132c0.3965,0.6529,1.7802,2.4783,3.1313,4.1251c2.9982,3.6282,4.4241,3.099,1.5463-0.5781
		c-1.0461-1.3318-2.4624-3.1994-3.1313-4.1255C349.7452,331.7511,348.3841,332.2577,349.5013,334.132L349.5013,334.132z"/>
	<path class="st0" d="M361.2504,352.8384c0.3213,0.2987,0.7307,0.2857,1.0328-0.0326c0.302-0.3183,0.289-0.7341-0.0259-1.0361
		c-0.3217-0.2957-0.7341-0.2827-1.0361,0.0389C360.9221,352.1206,360.9351,352.5364,361.2504,352.8384L361.2504,352.8384z"/>
	<path class="st0" d="M390.1918,213.6748c0.315,0.3024,0.6336,0.1706,0.7407-0.3053c0.1104-0.4936,0.0875-0.919-0.0585-1.0554
		c-0.1397-0.1367-0.4417-0.0116-0.7408,0.3083C389.8476,212.9261,389.8702,213.3744,390.1918,213.6748L390.1918,213.6748z"/>
	<path class="st0" d="M386.1868,227.4488c0.1334,0.4663,0.4547,0.5768,0.757,0.2618c0.302-0.32,0.2924-0.77-0.0067-1.0574
		c-0.3217-0.299-0.6203-0.4045-0.7567-0.2681C386.0441,226.5315,386.0471,226.9585,386.1868,227.4488L386.1868,227.4488z"/>
	<path class="st0" d="M392.7969,241.7101c0.2438,3.0325,1.6179,2.2495,1.5301-0.8784c-0.0619-2.0609-0.2924-2.5628-0.8868-1.9345
		C393.0048,239.3635,392.7094,240.6285,392.7969,241.7101L392.7969,241.7101z"/>
	<path class="st0" d="M386.7456,259.9359c0.3932,4.7943,0.8834,6.4055,1.702,5.5351c0.3735-0.3961-0.2794-8.4325-0.8542-10.4788
		C386.8886,252.462,386.3817,255.434,386.7456,259.9359L386.7456,259.9359z"/>
	<path class="st0" d="M394.7427,259.8581c0.2305,3.1572,0.7534,5.6356,1.1628,5.5284c0.8738-0.2305,0.5329-10.7322-0.3702-11.5831
		C394.4926,252.8226,394.3236,254.1348,394.7427,259.8581L394.7427,259.8581z"/>
	<path class="st0" d="M173.7857,227.2818c0.3053,0.289,0.7537,0.2644,1.0557-0.0552c0.302-0.3216,0.169-0.6303-0.3053-0.7374
		c-0.4969-0.1104-0.9227-0.0878-1.0557,0.0569C173.3473,226.6858,173.4707,226.9812,173.7857,227.2818L173.7857,227.2818z"/>
	<path class="st0" d="M284.5986,258.9584c9.3778,8.1302,14.0388,10.8034,6.5745,3.7712
		c-6.4771-6.1132-14.6106-12.5902-15.1171-12.0444C275.7929,250.9646,279.3011,254.3652,284.5986,258.9584L284.5986,258.9584z"/>
	<path class="st0" d="M316.3177,420.7783c0.3183,0.302,0.6366,0.1623,0.7404-0.3087c0.1137-0.4969,0.0878-0.9223-0.0586-1.0557
		c-0.1397-0.1331-0.4351-0.013-0.7341,0.3054C315.9798,420.0212,315.9994,420.4762,316.3177,420.7783L316.3177,420.7783z"/>
	<path class="st0" d="M356.7188,449.239c1.7802,2.5791,11.5605,11.0539,12.09,10.4854
		c0.6563-0.6855-10.7678-12.0314-12.0767-11.9925C356.0433,447.7579,356.037,448.2548,356.7188,449.239L356.7188,449.239z"/>
	<path class="st0" d="M359.1845,445.5623c1.1236,1.9974,14.5713,15.2828,15.01,14.8181c0.4969-0.5325-4.0473-5.8109-10.1997-11.8429
		C360.1947,444.8052,358.0054,443.4475,359.1845,445.5623L359.1845,445.5623z"/>
	<path class="st0" d="M334.0918,382.7155c0.7082,1.5982,5.2783,9.618,5.7463,10.0793c0.2468,0.2435,0.617,0.1949,0.9157-0.1201
		c0.5914-0.6366-4.6024-9.5891-6.035-10.4106C333.8061,381.7442,333.6957,381.8254,334.0918,382.7155L334.0918,382.7155z"/>
	<path class="st0" d="M353.8996,393.0286c0.1331,0.1267,3.573,5.8371,7.6788,12.7589c4.1122,6.9124,7.6299,12.5221,7.8574,12.5124
		c0.7404-0.0229,0.8738-1.7835,0.1853-2.4298c-0.3509-0.3346-3.6641-5.6908-7.3868-11.9503
		c-7.4091-12.4536-7.3668-12.392-8.0683-11.645C353.8636,392.5902,353.7565,392.8956,353.8996,393.0286L353.8996,393.0286z"/>
	<path class="st0" d="M377.4945,403.686c0.5069,1.4845,0.8771,3.2776,0.8089,3.9239c-0.1071,1.0328,5.8275,11.9114,7.2078,13.2106
		c1.1172,1.0524,1.3837-0.7311,0.3409-2.2771c-3.2124-4.7877-6.35-10.6022-5.9475-11.0309
		c0.6922-0.7374-0.9872-5.1223-2.2605-5.8987C376.8678,401.1395,376.8286,401.7372,377.4945,403.686L377.4945,403.686z"/>
	<path class="st0" d="M382.3344,411.313c0.5003,0.1071,0.9257,0.0875,1.0624-0.0586c0.1331-0.143,0.013-0.4417-0.3087-0.7374
		c-0.302-0.2857-0.7537-0.2631-1.0557,0.0585C381.7303,410.8905,381.8667,411.2088,382.3344,411.313L382.3344,411.313z"/>
	<path class="st0" d="M412.6695,466.4709c2.339,2.1989,4.6613,3.4559,5.246,2.8356c0.5718-0.6107-4.7165-4.5768-6.1068-4.5831
		C411.2046,464.7201,411.5522,465.4152,412.6695,466.4709L412.6695,466.4709z"/>
	<path class="st0" d="M415.3657,463.4987c0.1364,0.468,0.458,0.5814,0.7567,0.2601c0.299-0.3183,0.3053-0.7733-0.0063-1.0591
		c-0.312-0.2987-0.6173-0.4028-0.7537-0.2598C415.226,462.586,415.2293,463.0051,415.3657,463.4987L415.3657,463.4987z"/>
	<path class="st0" d="M429.4174,472.7368c5.3691,4.3104,8.5589,5.5544,4.5475,1.7735c-3.7193-3.5048-8.4941-6.8343-9.0106-6.2885
		C424.6523,468.5465,426.3933,470.3104,429.4174,472.7368L429.4174,472.7368z"/>
	<path class="st0" d="M510.4052,297.8005c-1.2959,4.9959-1.3318,5.3921-0.4773,5.3694c0.9872-0.0293,3.5178-9.5824,2.5951-9.7673
		C511.5161,293.1914,511.7014,292.8079,510.4052,297.8005L510.4052,297.8005z"/>
	<path class="st0" d="M514.6411,298.187c-0.5166,1.9165-0.0845,3.6901,0.6948,2.8585c0.7018-0.7374,1.5919-5.0152,1.1306-5.4506
		C515.7747,294.942,515.3459,295.543,514.6411,298.187L514.6411,298.187z"/>
	<path class="st0" d="M508.6869,345.9133c-0.1137,9.5821,1.2636,10.6152,1.556,1.1628c0.2405-7.8933,0.1038-9.4979-0.783-9.2607
		C509.0864,337.9095,508.7455,341.5573,508.6869,345.9133L508.6869,345.9133z"/>
	<path class="st0" d="M566.6449,291.0507c-1.3448,3.8427-1.4226,6.0061-0.159,4.6613c1.101-1.1662,3.3455-9.0139,2.6277-9.1666
		c-0.5066-0.1038-0.8608-0.1104-0.8901-0.0193C568.1976,286.6106,567.4927,288.6438,566.6449,291.0507L566.6449,291.0507z"/>
	<path class="st0" d="M572.0599,291.1418c-1.5397,4.466-1.7316,6.8732-0.4387,5.5055c1.1047-1.1691,3.8654-10.6344,3.1476-10.7808
		c-0.5036-0.1071-0.8575-0.1168-0.8834-0.0226C573.8624,285.9283,573.0278,288.3452,572.0599,291.1418L572.0599,291.1418z"/>
	<path class="st0" d="M595.5411,273.7668c-1.8806,2.7384-2.9005,4.8659-2.6017,5.4213c0.3409,0.6433,0.6788,0.5362,1.1239-0.3442
		c0.3476-0.6852,2.2349-3.5114,4.1544-6.2073c1.9165-2.7092,3.3002-5.1679,3.0371-5.4147
		C600.657,266.6598,599.5527,267.9234,595.5411,273.7668L595.5411,273.7668z"/>
	<path class="st0" d="M620.3673,265.0812c-0.1301,0.6822-0.0163,1.257,0.2372,1.231c0.8771-0.0812,6.1717-7.1234,5.6941-7.5714
		C625.6619,258.1398,620.679,263.47,620.3673,265.0812L620.3673,265.0812z"/>
	<path class="st0" d="M540.9289,267.5143c0.3087,0.292,2.2834-1.3578,4.7814-4.0084c2.5043-2.654,4.0373-4.7228,3.7223-5.0185
		c-0.3053-0.2924-2.2834,1.364-4.7847,4.0147C542.1503,265.159,540.6169,267.2219,540.9289,267.5143L540.9289,267.5143z"/>
</g>
</svg>
