<?xml version="1.0" encoding="utf-8"?>
<!-- Generator: Adobe Illustrator 19.0.1, SVG Export Plug-In . SVG Version: 6.00 Build 0)  -->
<svg version="1.1" id="Layer_1" xmlns="http://www.w3.org/2000/svg" xmlns:xlink="http://www.w3.org/1999/xlink" x="0px" y="0px"
	 viewBox="0 0 700 350" style="enable-background:new 0 0 700 350;" xml:space="preserve">
<style type="text/css">
	.st0{fill:#FCFCEC;}
</style>
<g>
	<path class="st0" d="M50.884,76.7762c0.4088,0.6271,2.5983,2.1615,4.8732,3.3888c2.4034,1.3125,13.5445,12.2646,26.7375,26.2891
		c21.7249,23.0949,22.5313,24.1017,20.5151,25.6252c-3.0681,2.3144-1.6265,4.4771,10.1676,15.2691
		c8.8226,8.0726,39.7281,34.0076,48.0519,40.3219c2.161,1.6382,2.5562,2.3477,1.3177,2.3632
		c-0.9324,0.0173-2.5608,0.7938-3.4522,1.6689c-2.4468,2.3717-1.3015,3.4592,15.5727,14.9185
		c15.9527,10.83,33.1571,20.4621,46.5014,26.0385c8.1642,3.4137,8.4082,3.6193,6.6759,5.4395
		c-1.3554,1.4332-1.5327,2.3303-0.7305,3.6811c2.2339,3.746,28.1249,13.7822,51.322,19.8975
		c12.3244,3.2494,13.1872,3.6302,11.1499,4.9553c-3.3509,2.1818-2.8821,5.0268,1.0546,6.3411
		c6.4182,2.1478,29.4223,6.7176,40.2186,8.0031c21.1742,2.4961,20.133,2.2508,18.1902,4.311
		c-2.2285,2.3566-2.1581,4.9487,0.1589,5.7269c4.3078,1.4451,18.2598,2.8926,29.8947,3.092
		c10.736,0.1914,26.4276-1.0295,39.9757-3.1108l3.6418-0.5604l-5.2456,3.5424c-7.247,4.8852-9.6236,7.6208-8.0408,9.2594
		c2.326,2.3987,37.7785-2.6221,58.9602-8.3508c22.3349-6.0395,48.8722-17.4743,66.2365-28.5403l9.7616-6.2258l14.2109,2.3418
		c17.5211,2.8891,45.5828,3.9685,51.4286,1.9875c2.0916-0.7099,5.1315-2.9206,6.6215-4.8055l2.7523-3.4988l-3.3242-3.4278
		l-3.3334-3.4257l-29.9684-4.7056c-28.8325-4.5337-30.1916-4.849-35.5411-8.3216c-11.7785-7.6445-22.4474-18.3237-36.8838-36.9399
		c-17.0491-21.9836-37.6298-43.6567-45.0224-47.4065c-2.8557-1.4474-8.1386-5.388-11.8265-8.8256
		c-8.412-7.8262-22.1971-18.5006-26.2049-20.2914c-1.7586-0.7842-3.7832-1.0362-4.6731-0.5706
		c-1.003,0.5139-2.4458,0.0726-3.9877-1.207c-1.3323-1.1097-3.0347-2.0262-3.8162-2.0317
		c-0.783-0.0143-5.5174-2.8127-10.6656-6.2932c-8.438-5.7199-18.7647-10.7807-22.0834-10.8287
		c-0.7315-0.0145-1.8846,0.5028-2.5128,1.1145c-0.8633,0.8224-3.4371,0.1048-9.9371-2.7851
		c-9.503-4.2165-13.563-4.8318-15.0785-2.2745c-0.9264,1.5675-2.1673,1.2825-11.9771-2.785
		c-14.0576-5.8296-28.3663-10.9131-30.822-10.9466c-2.1219-0.0328-2.3976,1.6248-0.9168,5.6
		c0.5395,1.4592,0.6412,2.7057,0.222,2.7011c-0.4294-0.0076-7.5013-2.3903-15.7755-5.3182
		c-20.1646-7.1349-30.4417-9.6659-32.5228-8.0083c-0.8383,0.6725-1.3118,1.9897-1.0065,2.8231
		c0.9565,2.6308-6.3122,0.1702-12.3843-4.1832c-1.3337-0.9597-2.0594-1.0219-2.5985-0.2009
		c-0.525,0.7949-5.7161,0.0583-17.4288-2.4824c-36.7861-7.9756-47.9541-9.867-50.8122-8.6058
		c-2.3191,1.0137-2.6356,1.6584-2.1429,4.3768c0.4915,2.709,0.3166,3.0698-1.1793,2.4642
		c-3.0801-1.2333-28.2603-8.1016-36.3432-9.9079c-6.219-1.3795-8.5486-2.517-12.3314-5.9842
		c-2.5663-2.3507-5.1385-4.1312-5.711-3.9436c-2.4437,0.7679-1.7057,2.7557,2.195,5.9624c2.3637,1.9306,4.1984,4.159,4.1859,5.0592
		c-0.0121,0.9001,1.6547,3.7133,3.7497,6.3461l3.7804,4.7373l-6.693-0.7724c-3.679-0.4295-13.2325-1.6047-21.2229-2.6091
		c-7.9853-1.0058-23.2014-2.2402-33.7994-2.7385c-17.352-0.8226-19.4475-0.7374-21.0273,0.8348
		C50.1295,72.1862,49.6632,74.8747,50.884,76.7762L50.884,76.7762z M86.5162,94.8422
		c12.4271,6.7287,56.5565,27.7302,83.1002,39.5447c4.1297,1.8392,7.2446,3.4755,7.0139,3.6811
		c-0.5569,0.4857-5.6086-0.2571-41.4961-6.0856l-24.682-4.0146l-9.8384-9.5915c-8.3992-8.2001-28.8657-30.3362-28.8487-31.2088
		C71.7664,86.993,78.3702,90.4334,86.5162,94.8422L86.5162,94.8422z M80.5347,73.9312c4.7111,0.4419,19.7741,2.1881,33.469,3.8792
		l24.9081,3.076l9.0788,8.3457c5.0253,4.6267,11.9371,11.6411,15.4826,15.7248c6.4118,7.3723,7.8377,8.4512,8.5392,6.4682
		c0.5879-1.6478-14.0546-17.9843-23.5992-26.3311c-4.8236-4.2114-8.9656-8.6299-9.2642-9.8738
		c-0.4698-1.9609-0.1243-1.8443,2.7395,0.9324c2.4638,2.383,51.4986,46.5245,53.9635,48.5737
		c0.4816,0.4026-12.9188-5.1454-32.4387-13.4303c-8.5551-3.6252-28.0046-11.6223-43.4042-17.8309
		C83.2234,78.6109,71.9595,73.9347,71.9624,73.5061C71.9691,73.3075,75.8637,73.5009,80.5347,73.9312L80.5347,73.9312z
		 M114.7471,132.7682c1.4188,0.281,8.915,1.5201,16.5913,2.7412c7.6776,1.2253,20.1425,3.2688,27.5841,4.5177
		c7.4716,1.2579,18.2173,2.6561,23.87,3.1075c8.8221,0.7139,13.1699,1.8321,30.7572,7.8927
		c11.2748,3.8982,20.2879,7.2721,20.0608,7.5247c-0.2365,0.2539-14.1393-0.215-30.9625-1.0523
		c-39.2765-1.9475-38.3394-1.9416-38.3639-0.2448c-0.0181,1.2069,4.2914,1.5896,24.448,2.19
		c18.9173,0.5602,24.661,1.0468,25.286,2.1429c0.6451,1.1301,3.7787,1.3004,15.3214,0.8533
		c11.8547-0.4607,15.0491-0.2682,17.4462,1.0359l2.9406,1.6065l-4.0607,0.5601c-2.2244,0.3106-7.2384,0.8494-11.094,1.1892
		c-3.8408,0.3425-7.0299,1.0426-7.041,1.5568c-0.0172,1.188,4.875,1.0943,16.9478-0.2992l10.1054-1.1715l13.285,5.0373
		c7.2894,2.7572,20.0059,7.4311,28.1748,10.3457l14.8872,5.318l-5.7188,0.5952c-3.1395,0.3195-12.182,0.8392-19.9769,1.1584
		c-14.5641,0.5854-19.7862,2.2435-7.6281,2.424c10.7019,0.16,33.2542-1.7105,33.9916-2.816
		c0.4374-0.6525,2.6988-0.3395,6.2173,0.8714l5.5325,1.9025l-6.574,1.7738c-11.2741,3.041-25.0108,3.9949-45.9968,3.2003
		c-10.9164-0.4132-19.7477-0.4201-19.7514-0.0199c-0.0213,1.6071,12.3352,2.4198,32.5033,2.1437
		c21.1057-0.2938,31.4943-1.6153,38.8558-4.9736c3.2944-1.4995,3.9135-1.4037,13.9466,2.0739
		c9.8316,3.4006,10.2724,3.6835,6.9569,4.3071c-9.6079,1.8206-30.8273,3.5455-51.8304,4.2017
		c-25.474,0.7874-39.4089-0.0426-67.1058-4.0138c-14.9368-2.1401-52.7595-7.0662-54.6842-7.1291
		c-0.3969-0.0091-0.7082-1.1145-0.6824-2.4638c0.0212-1.8705-2.5349-4.5046-10.9612-11.2849
		c-13.6656-11.0012-33.327-27.7662-43.2178-36.8645l-7.4857-6.8833l2.417-1.779
		C111.0918,133.0442,113.2949,132.4837,114.7471,132.7682L114.7471,132.7682z M135.4272,112.1305
		c10.7434,4.4453,29.7577,12.4026,42.2628,17.6787c12.495,5.2736,29.7026,12.1496,38.2395,15.2798
		c8.5213,3.1238,32.0415,11.9268,52.2049,19.527c40.2169,15.1643,133.5375,47.8697,159.6868,55.9698
		c15.0645,4.6564,70.6124,19.2621,86.3623,22.7091c3.5186,0.7689,6.4189,1.7336,6.4157,2.1338
		c-0.0079,0.401-1.6329,1.2477-3.7229,1.9149c-3.1296,1.0043-5.3097,0.8033-14.0138-1.2953
		c-5.6936-1.3843-10.3041-2.893-10.2936-3.3836c0.0082-0.4767-1.648-0.9028-3.6284-0.9326
		c-6.1336-0.0925-51.0324-14.909-151.0399-49.8454c-59.8786-20.9128-75.0409-26.4544-83.7536-30.5924
		c-4.3818-2.09-31.0087-12.1167-53.2415-20.0601c-12.8173-4.5806-32.9968-12.7658-44.9512-18.2491
		c-11.9751-5.4936-25.9335-11.7922-31.183-14.0835C107.9216,101.5567,115.2851,103.7836,135.4272,112.1305L135.4272,112.1305z
		 M150.6495,70.8218c5.5888,1.5351,15.0685,4.2609,20.9673,6.0316c5.8985,1.7659,11.1428,3.0052,11.6055,2.7295
		c1.531-0.9005,1.1015-3.5268-1.0502-6.3703c-2.3947-3.148-1.9719-4.249,0.7515-1.9405c1.0256,0.8687,4.8317,3.8382,8.5355,6.6566
		c3.6714,2.7963,12.7804,11.4659,20.2395,19.2756c7.4663,7.7991,13.8488,13.9071,14.1877,13.5689
		c1.6014-1.5809-23.7879-28.3757-34.1777-36.0626c-2.9781-2.2064-5.2623-4.2173-5.04-4.4455
		c0.526-0.5269,46.2494,9.0399,57.013,11.9255c8.7545,2.3529,9.8349,2.9773,21.5437,12.4822
		c8.8343,7.1677,12.6544,9.6927,13.4917,8.8836c1.3162-1.2846,1.673-0.8928-8.3947-9.1692
		c-5.5397-4.5579-7.1005-6.3367-5.7766-6.5837c1.3831-0.2581,1.7222-1.0668,1.3993-3.3597
		c-0.2376-1.7671,0.0551-3.0191,0.7245-3.0074c2.5885,0.0381,15.3626,13.4329,32.5876,34.1716
		c10.1706,12.2497,29.4949,33.7066,43.0833,47.8391c24.4279,25.4205,25.6536,27.194,15.3086,22.1365
		c-5.2375-2.5621-22.0297-20.1576-47.988-50.2776c-10.6157-12.3205-19.8483-22.3319-20.5895-22.3489
		c-2.932-0.0423-2.3416,2.2498,1.7933,6.9985c15.3482,17.592,52.4825,58.5447,54.8038,60.4455l2.7628,2.2682l-2.5844-0.7769
		c-8.8348-2.6442-32.1912-25.2153-67.9904-65.6694c-8.3849-9.482-15.6171-16.9183-16.1308-16.6098
		c-1.9874,1.1847,47.0125,54.581,66.4893,72.4654l6.5694,6.0229l-7.4467-2.663c-7.1837-2.5601-7.9449-3.185-21.6737-17.7343
		c-7.8584-8.3305-14.2629-14.4297-14.3015-13.6236c-0.0406,0.7926,5.1354,6.8872,11.3924,13.4221
		c6.2675,6.5427,11.2544,12.1585,10.9885,12.3801c-0.2523,0.2196-5.8456-1.5496-12.3617-3.9287l-11.8882-4.3292l-26.6082-27.6383
		c-32.1917-33.4339-38.1913-39.1124-51.2698-48.4698c-14.5053-10.39-14.8043-7.5525-0.37,3.4608
		c8.1494,6.2094,20.276,17.6753,40.5499,38.3458c15.8745,16.1806,28.7423,29.6762,28.5098,29.9014
		c-0.7574,0.7283-30.0791-11.367-30.0679-12.4037c0.0255-1.6642-54.8524-61.3722-55.8593-60.7729
		c-0.5179,0.3092,8.6572,11.1018,20.3715,23.963c28.3182,31.0831,33.1825,36.566,32.4754,36.5567
		c-0.2823-0.0008-3.0477-0.9994-6.0465-2.1722c-4.5455-1.7736-6.6192-3.5262-11.6517-9.844
		c-9.6446-12.0953-31.1735-36.5321-32.2059-36.5488c-1.8911-0.0319-0.8698,1.4399,7.5767,10.9243
		c12.1972,13.6916,26.109,30.5918,25.5842,31.0712c-0.2383,0.2171-2.4892-0.4555-5.0703-1.5007
		c-3.5201-1.4316-6.171-3.7815-10.9073-9.6773c-5.7483-7.1579-8.047-9.171-8.0762-7.0829
		c-0.0069,0.4572,2.1158,3.3483,4.6873,6.4082c2.5705,3.0548,4.4726,5.8166,4.1887,6.0934
		c-1.4511,1.4499-12.7207-5.7689-21.9509-14.0407c-31.0873-27.8634-54.4998-49.5968-53.7366-49.875
		C140.0711,68.1572,145.0642,69.2818,150.6495,70.8218L150.6495,70.8218z M175.9089,196.9375
		c4.4387,0.4721,23.3973,2.9902,42.2825,5.6198c30.6042,4.2673,36.5441,4.7986,56.0627,5.0153
		c25.2534,0.287,42.912-0.7134,63.7812-3.6311l14.898-2.0797l7.4457,2.5554l7.4508,2.5544l-15.6428,3.1678
		c-29.9458,6.0718-32.5327,6.3296-65.3875,6.4686c-19.3429,0.0806-30.8818,0.5221-30.8923,1.1682
		c-0.0161,1.3761,60.3873,1.1352,70.1797-0.2857c4.0243-0.5777,15.8427-2.8137,26.377-4.9746l19.0833-3.9314l11.3701,4.2195
		l11.3719,4.2293l-13.2421,2.5815c-13.2374,2.5806-14.87,3.0714-13.7846,4.1927c0.7201,0.7358,25.6307-3.9186,28.1499-5.26
		c1.2046-0.6488,3.5381-0.3252,7.2655,1.0032c5.2702,1.8788,5.3626,1.9754,2.3451,2.5315
		c-1.7253,0.3148-8.9502,1.0063-16.1335,1.5352c-15.2986,1.131-18.3554,1.6239-17.0895,2.7556
		c0.5115,0.4675,10.446,0.0461,21.9973-0.9292c20.6133-1.7243,21.2261-1.7169,27.4952,0.2554
		c7.8279,2.4583,7.2389,2.6585-13.7938,4.8246c-23.737,2.4454-23.9439,2.4729-23.9614,3.5011
		c-0.0117,0.5616,0.1931,0.9432,0.5079,0.9429c2.9041,0.0425,32.1656-3.0614,39.3565-4.1748
		c8.9613-1.3891,9.5072-1.3601,16.1,0.9205c8.7936,3.0421,9.4638,3.4763,6.3876,4.1749c-1.4651,0.3244-2.8797,0.1977-3.2149-0.3063
		c-0.3361-0.4851-5.3061-0.0154-10.9393,1.0295c-12.723,2.3567-34.1664,4.5119-51.5326,5.1781
		c-12.072,0.4574-16.8168,1.2396-15.5357,2.5607c0.7201,0.7358,36.414-1.5021,51.1999-3.2088
		c6.9837-0.8036,12.7724-1.2698,12.9849-1.0307c0.5199,0.5648-17.2986,4.655-32.5245,7.447
		c-16.6895,3.0738-38.2123,3.7906-92.0486,3.0821l-50.4103-0.6664l-9.8208-4.0752c-10.9452-4.5501-12.5307-5.5767-9.9799-6.477
		c0.9983-0.358,1.7882-1.511,1.8076-2.657c0.0249-1.4855-1.8319-2.8962-6.9916-5.3124
		c-19.5163-9.1272-33.5023-16.6808-46.6202-25.1852c-7.9245-5.14-14.4068-9.5281-14.4054-9.7537
		C167.8629,196.2767,171.4466,196.4653,175.9089,196.9375L175.9089,196.9375z M375.9673,253.6749
		c21.2383-1.6999,70.7793-12.7026,73.7814-16.3783c1.2222-1.494,1.9097-1.4621,7.8083,0.3318
		c3.5156,1.066,6.8454,2.3012,7.2897,2.7057c2.0191,1.8187-29.5844,11.0661-48.7635,14.2579
		c-7.546,1.2571-20.05,2.5307-27.9543,2.8411c-8.5304,0.3338-14.3188,0.9834-14.3251,1.6051
		c-0.0176,1.4187,24.6401,0.5098,37.4509-1.3827c17.0805-2.5191,45.6913-10.0289,54.3745-14.2742
		c3.1951-1.5567,4.3904-1.654,7.8137-0.6326l4.0337,1.203l-12.7278,3.0345c-11.8946,2.8328-16.5401,4.5327-12.5381,4.5893
		c0.9009,0.0168,7.5961-1.294,14.7964-2.9079c13.4564-3.0099,18.2475-3.5323,18.2258-2.005
		c-0.0056,0.5181-7.3723,2.6178-16.445,4.6942c-9.0766,2.0824-16.9036,4.1844-17.4865,4.7076
		c-1.9435,1.7695,9.468-0.1397,25.014-4.1838c9.3948-2.4309,16.2091-3.6788,17.5673-3.2127
		c2.1738,0.7423,2.175,0.7753,0.0305,1.5039c-1.2137,0.4155-10.9077,2.8293-21.6507,5.3989
		c-10.748,2.5661-19.4678,5.0636-19.4734,5.5816c-0.0169,1.2914,4.7725,0.3654,28.149-5.4476
		c11.1672-2.7729,21.2828-4.8018,22.4195-4.4937c2.8723,0.7815-20.8107,7.9519-42.8195,12.9785
		c-16.1711,3.6812-22.8183,5.8865-17.9668,5.96c3.6065,0.0526,39.4281-8.8521,53.0042-13.1864
		c7.632-2.429,14.087-4.2378,14.3076-4.0045c2.0714,2.1339-45.038,22.4841-69.3745,29.9693
		c-9.569,2.9514-32.8445,6.3196-49.8022,7.2177c-10.8215,0.562-36.8936-1.0116-38.1343-2.3169
		c-0.2706-0.2759,0.8181-1.5432,2.3988-2.7675c1.5718-1.2227,2.8939-2.8146,2.9081-3.4941
		c0.0252-1.5611-1.9511-1.9629-17.3124-3.5096c-11.4116-1.1514-36.4967-5.6063-44.373-7.8869l-3.1086-0.894l2.8258-1.2834
		c3.1414-1.4344,3.7339-3.215,1.6326-4.939c-0.6691-0.5567-7.5429-2.7025-15.2088-4.7527l-13.9828-3.741l47.3057,0.0812
		C341.642,254.6842,368.8202,254.2493,375.9673,253.6749L375.9673,253.6749z M294.3993,90.2726
		c9.8233,3.5904,18.4597,6.2563,19.3034,5.954c1.0906-0.3934,1.3586-1.598,0.9484-4.2985
		c-0.4768-3.1257-0.3021-3.6458,1.0315-3.1049c0.933,0.3774,2.1258,0.6571,2.8471,0.6685
		c2.4232,0.0345,19.592,10.9099,29.3586,18.5822c9.9057,7.7927,36.3501,35.4089,58.9062,61.5326
		c10.3661,12.0033,12.8351,14.3103,12.8742,12.0413c0.0456-3.0689-58.3634-67.0703-68.131-74.6437
		c-4.2142-3.277-7.6074-6.0949-7.6017-6.3261c0.0261-1.5564,11.4549,6.1841,19.9683,13.5269
		c17.8475,15.3842,34.2203,32.5051,55.8411,58.3968c22.7661,27.266,33.509,39.6671,37.763,43.5861l2.6689,2.4497l-3.626-0.764
		c-5.2874-1.1141-7.0386-2.511-16.5585-13.1569c-4.7079-5.2663-8.9501-9.5913-9.4074-9.5987
		c-1.8481-0.0252-0.4555,2.9875,2.9232,6.3256c2.0416,2.0213,5.4917,5.8636,7.7168,8.5905l4.0348,4.9501l-3.4163-1.0362
		c-5.2386-1.5744-24.5724-22.3526-46.9499-50.441c-2.0065-2.5307-3.9794-4.17-4.3293-3.604
		c-0.7621,1.2274,22.8292,30.1839,34.298,42.0969c7.6175,7.9034,8.8864,10.44,3.843,7.6504
		c-0.9659-0.5361-7.8505-8.0777-15.3396-16.8126c-7.4949-8.7435-14.0646-15.58-14.6392-15.2461
		c-0.5839,0.3355,0.2721,2.0903,1.8726,3.8812c3.3887,3.7874,18.2833,21.1595,21.1228,24.6368l1.8072,2.2093l-5.8005-1.746
		c-5.4739-1.654-6.1925-2.2774-13.0503-11.2152c-9.0425-11.7803-21.8199-25.6118-22.7967-24.6649
		c-0.4094,0.3932,2.4455,4.1918,6.3105,8.4059c7.2366,7.9059,18.7039,22.1658,18.6882,23.2548
		c-0.0088,0.3449-1.3056,0.1402-2.8514-0.4564c-1.5648-0.598-5.3687-4.2357-8.4905-8.1322
		c-11.2932-14.1029-20.789-24.692-21.1712-23.5983c-0.2171,0.6221,4.903,7.4509,11.3531,15.1408
		c6.4442,7.6814,11.6243,14.0858,11.4833,14.1911c-0.1487,0.1158-2.0228-0.3467-4.1978-1.0421
		c-2.8436-0.9089-5.1827-2.9384-8.4622-7.3472c-2.5091-3.3667-5.011-5.8277-5.5903-5.4934
		c-0.5657,0.3323,0.6196,2.7144,2.6249,5.241c2.0088,2.5168,3.2512,4.6162,2.7373,4.6098
		c-5.2605-0.0751-47.2249-42.0781-79.0726-79.1472c-11.6657-13.5849-22.9231-26.3871-24.9416-28.3845
		c-2.0518-2.0247-3.6937-3.7562-3.6916-3.9025C276.6124,83.8862,284.5756,86.6774,294.3993,90.2726L294.3993,90.2726z
		 M358.0383,99.6392c0.2808-0.53,10.0748,4.3632,16.152,8.0672c6.0803,3.6943,9.0842,4.0053,9.136,0.9445
		c0.01-0.8338,0.5054-1.5574,1.0662-1.5503c2.5601,0.0383,11.5632,5.3986,23.4865,14.0046
		c7.2036,5.1848,13.9982,9.4272,15.1481,9.4416c3.7569,0.0539,15.1506,13.537,31.1504,36.8511
		c24.7961,36.131,33.4917,46.8971,45.6372,56.5069c4.1154,3.2524,7.4906,6.1255,7.4888,6.3512
		c-0.0389,2.5838-21.6234-16.6427-32.2869-28.7572c-7.4207-8.4323-11.1172-11.4215-8.897-7.2031
		c1.357,2.5819,20.9028,23.1761,27.7734,29.2812l5.643,5.0044l-3.6269-0.7961c-3.9896-0.8773-17.3227-12.3051-30.7135-26.3321
		c-4.2365-4.4247-8.358-8.0241-9.2159-8.0346c-1.8146-0.0264,6.4188,8.8477,20.7659,22.3875
		c9.1255,8.606,9.8125,9.498,6.7852,8.8479c-2.1578-0.4684-6.2923-3.4352-11.5174-8.2841
		c-4.5174-4.1816-8.4897-7.2108-8.8978-6.7894c-0.4079,0.4257,2.2423,3.5326,5.9278,6.9562l6.6669,6.1743l-3.8286-0.9245
		c-7.4147-1.8041-13.212-7.7447-45.5668-46.6929c-11.7225-14.11-24.6989-29.3116-28.9523-33.9076
		c-8.6864-9.3806-29.2933-28.3456-36.9888-34.0438c-4.4247-3.2719-4.9574-4.0366-3.8182-5.497
		C357.277,100.7163,357.9556,99.8091,358.0383,99.6392L358.0383,99.6392z M424.7584,293.2713
		c4.2984-2.6105,13.1953-6.4002,21.4487-9.1383c7.7799-2.5731,20.9035-7.3576,29.268-10.6564
		c18.1955-7.1715,26.2689-9.7882,40.7393-13.1734c11.0626-2.5943,15.9816-3.0077,20.7141-1.766
		c2.3884,0.6291,1.961,1.0771-5.3798,5.6734c-27.3603,17.1124-64.9055,30.0879-99.3813,34.3405
		c-20.515,2.5338-19.2327,2.4729-16.8518,0.7288C416.4824,298.4212,420.6649,295.7656,424.7584,293.2713L424.7584,293.2713z
		 M428.468,128.0646c4.9412,3.2687,12.8415,10.1338,21.4491,18.6307c5.7431,5.6634,9.1931,8.3016,10.8958,8.3298
		c3.117,0.0509,15.8486,10.985,15.39,13.221c-0.18,0.8552,3.9042,6.6053,9.1026,12.8225
		c8.6668,10.3432,12.7675,15.164,33.4479,39.2737c5.9642,6.9496,6.2853,7.5313,2.6672,4.7962
		c-9.9321-7.4924-20.3723-18.2594-36.6739-37.838c-9.5619-11.4799-17.628-20.441-17.8488-19.8134
		c-0.6197,1.7334,27.808,36.1729,38.7742,46.9634c5.3242,5.2451,13.5136,12.2509,18.3215,15.6938
		c4.7314,3.382,7.7515,5.9564,6.6219,5.661c-1.1376-0.3127-3.9329-0.9015-6.2207-1.3084
		c-8.9274-1.6401-27.4064-16.1448-39.1792-30.7677c-4.1834-5.2012-15.2678-20.6017-24.5677-34.1552
		c-12.4754-18.1688-19.3035-27.0466-25.9012-33.6474c-4.9195-4.9274-8.9916-9.1419-9.0121-9.3361
		C425.7075,126.3887,426.9204,127.0403,428.468,128.0646L428.468,128.0646z M511.0611,257.2421
		c4.2043-2.6928,8.0241-3.2053,11.8775-1.5934c1.5506,0.6472,0.1365,1.2822-5.6984,2.566c-4.2801,0.9332-8.3353,1.864-9.0342,2.0555
		C505.8905,260.9121,506.7635,259.9887,511.0611,257.2421L511.0611,257.2421z M522.6626,246.3415
		c0.0089-0.7117,0.952-0.9563,2.2951-0.6006c4.1498,1.0883,49.5644,8.5714,67.1022,11.0578
		c9.4359,1.3326,17.3021,2.6135,17.5219,2.8422c1.2972,1.3326-7.1985,1.6742-22.989,0.933
		c-17.0706-0.8024-32.8052-3.1194-57.677-8.4773c-10.6724-2.3001-11.5737-2.6832-8.6793-3.716
		C521.5939,247.9019,522.6523,247.0155,522.6626,246.3415L522.6626,246.3415z"/>
	<path class="st0" d="M115.3221,115.2681c4.1469,0.5761,7.8836,0.831,8.4071,0.5771c1.7095-0.8478-2.0471-2.0492-9.0013-2.8637
		C105.1327,111.8374,105.6728,113.9267,115.3221,115.2681L115.3221,115.2681z"/>
	<path class="st0" d="M116.5869,121.0264c1.7476,1.1434,27.468,5.6532,28.2062,4.9466c1.1353-1.088-0.1902-1.4795-13.1509-3.8996
		C119.4114,119.79,114.1176,119.4248,116.5869,121.0264L116.5869,121.0264z"/>
	<path class="st0" d="M137.6169,146.6906c6.4375,0.658,12.1568,0.9848,12.6705,0.7278c2.0759-1.0596-2.6674-2.1255-13.1563-2.9867
		C122.0465,143.1973,122.4614,145.1396,137.6169,146.6906L137.6169,146.6906z"/>
	<path class="st0" d="M199.0155,181.1676c8.4015,0.8087,16.646,1.7112,18.2672,1.9933c2.0718,0.3567,2.836,0.1347,2.5602-0.7465
		c-0.6337-1.9834-36.1009-5.5739-36.1274-3.6553C183.7091,179.2726,190.6047,180.361,199.0155,181.1676L199.0155,181.1676z"/>
	<path class="st0" d="M192.8978,176.3756c6.3265,1.1392,24.104,1.1141,24.1246-0.0278c0.0075-0.6123-3.5724-1.0928-8.565-1.1694
		c-4.6773-0.0715-11.0247-0.4641-13.9737-0.8605C188.1621,173.4652,186.7652,175.2675,192.8978,176.3756L192.8978,176.3756z"/>
	<path class="st0" d="M248.9498,175.4168c9.0456-0.2665,15.7385-0.9332,16.3986-1.63c0.8102-0.8553-1.7004-1.0392-9.2996-0.6517
		c-5.7233,0.2806-13.0889,0.4759-16.3797,0.4273c-3.8376-0.0577-5.9759,0.3404-5.9889,1.1044
		C233.6635,175.5442,237.7154,175.7473,248.9498,175.4168L248.9498,175.4168z"/>
	<path class="st0" d="M254.6422,180.6425c10.3955-0.2645,18.3822-0.9282,18.9976-1.5843c0.7448-0.8016-2.9005-0.9926-12.4639-0.6523
		c-7.4949,0.2604-15.9643,0.4379-18.9816,0.3922c-3.4358-0.0457-5.4643,0.3612-5.4755,1.1104
		C236.7042,180.7952,241.4354,180.9846,254.6422,180.6425L254.6422,180.6425z"/>
	<path class="st0" d="M184.4219,91.2297c2.9765,3.3771,5.8373,5.9007,6.2304,5.5243c0.7479-0.7035-8.8588-12.5374-10.8161-13.3283
		C177.5751,82.5109,179.2906,85.4376,184.4219,91.2297L184.4219,91.2297z"/>
	<path class="st0" d="M248.3975,134.187c11.3493,13.6836,13.7186,16.0605,13.7479,13.8169
		c0.0166-1.0329-24.142-30.6062-25.0138-30.6191C235.156,117.3547,238.1815,121.8698,248.3975,134.187L248.3975,134.187z"/>
	<path class="st0" d="M193.7666,208.7421c2.0605,0.7627,24.882,5.0504,27.0601,5.0823c1.0417,0.015,1.8776-0.384,1.887-0.9077
		c0.012-1.032-28.8561-6.2083-29.756-5.3268C192.5934,207.9418,192.9405,208.4345,193.7666,208.7421L193.7666,208.7421z"/>
	<path class="st0" d="M311.8703,236.5763c11.1385-0.9151,34.3923-4.0638,35.1094-4.7569c1.5575-1.5114-1.6475-1.4763-14.4556,0.1712
		c-7.7118,0.9908-16.8679,2.0812-20.4691,2.4225c-3.5383,0.3536-6.8213,1.1317-7.2005,1.7169
		C304.3781,236.8786,306.561,237.0175,311.8703,236.5763L311.8703,236.5763z"/>
	<path class="st0" d="M312.076,229.7406c6.1335,0.092,30.4481-2.8048,31.4506-3.7423c1.4139-1.3166,0.5381-1.2955-18.4095,0.4868
		c-8.9463,0.8457-16.3526,1.9131-16.3553,2.3695C308.7526,229.3266,310.2047,229.7147,312.076,229.7406L312.076,229.7406z"/>
	<path class="st0" d="M342.6352,223.1305c0.7784,0.8004,29.6913-4.2437,29.7031-5.1721c0.0171-1.2395-2.4731-1.0463-16.1266,1.2095
		C344.2255,221.1476,341.4918,221.9489,342.6352,223.1305L342.6352,223.1305z"/>
	<path class="st0" d="M382.2312,230.7847c5.4026,0.0779,23.3168-1.9087,29.2636-3.2501c1.3555-0.3047,2.1823-0.8856,1.8966-1.3234
		c-0.2865-0.442-6.0337-0.0584-12.8011,0.8474c-6.7786,0.8978-14.9807,1.6194-18.2755,1.5999
		c-3.3192-0.0242-5.9849,0.422-5.9896,0.9962C376.3185,230.2202,379.0161,230.737,382.2312,230.7847L382.2312,230.7847z"/>
	<path class="st0" d="M402.1715,270.4305c17.1572-0.0263,22.6213-0.3639,23.6785-1.4662c1.1559-1.2091,0.2282-1.3477-5.9113-0.87
		c-4.025,0.3139-14.6154,0.4584-23.6625,0.3251c-11.3235-0.1658-16.3668,0.1058-16.3825,0.9078
		C379.8835,270.1331,386.2693,270.4528,402.1715,270.4305L402.1715,270.4305z"/>
	<path class="st0" d="M399.0809,265.3439c10.3951,0.154,32.3663-1.706,33.4159-2.8257c0.7567-0.8129-1.0283-0.9857-6.2277-0.6158
		c-4.0307,0.2822-13.0128,0.7439-20.0827,1.0411C393.4963,263.4648,388.4081,265.1879,399.0809,265.3439L399.0809,265.3439z"/>
	<path class="st0" d="M364.1638,148.3872c9.8014,11.5828,12.129,13.8589,12.1577,11.9259
		c0.0162-1.2441-20.4711-25.5623-21.5602-25.5785C352.8858,134.7096,354.1879,136.5917,364.1638,148.3872L364.1638,148.3872z"/>
	<path class="st0" d="M375.5069,148.3993c2.7455,3.0614,5.5918,5.4508,6.2122,5.2406c0.6235-0.2199-1.6787-3.5068-5.0354-7.1964
		c-3.3572-3.6896-6.2043-6.0836-6.2135-5.2452C370.4538,142.0476,372.7711,145.341,375.5069,148.3993L375.5069,148.3993z"/>
	<path class="st0" d="M443.8558,173.4889c2.2484,3.1459,4.4626,6.439,4.8742,7.2398c0.4375,0.8381,1.2551,1.307,1.9131,1.0949
		c1.2741-0.4172-8.5002-15.6438-10.0554-15.6653C438.9759,166.1374,439.582,167.4955,443.8558,173.4889L443.8558,173.4889z"/>
	<path class="st0" d="M454.0843,178.3136c2.9463,3.994,5.0537,5.7545,5.0728,4.2374c0.0254-1.6647-6.342-9.9665-7.2386-9.4337
		C450.6806,173.8428,450.5352,173.4785,454.0843,178.3136L454.0843,178.3136z"/>
	<path class="st0" d="M480.1148,275.9059c2.0881,0.0293,14.4994-3.1458,33.3971-8.5581c17.3316-4.9667,17.5334-5.0497,16.7511-6.287
		c-0.2901-0.465-6.7959,1.0612-14.4208,3.3715c-7.6207,2.3095-19.1605,5.4927-25.576,7.0498
		c-6.4681,1.5805-11.6938,3.192-11.7014,3.621C478.5594,275.518,479.2852,275.8951,480.1148,275.9059L480.1148,275.9059z"/>
</g>
</svg>
